<svg width="1440" height="623" viewBox="0 0 1440 623" fill="none" xmlns="http://www.w3.org/2000/svg">
    <g filter="url(#filter0_dd_374_692)">
        <path d="M725 312.5C479.795 312.5 234.278 334.312 0 372.894V585H1440V370.33C1207.3 332.283 968.461 312.5 725 312.5Z" fill="#F3F3F3"/>
    </g>
    <path d="M725 309C479.795 309 234.278 330.812 0 369.394V581.5H1440V366.83C1207.3 328.783 968.461 309 725 309Z" fill="#F3F3F3"/>
    <g filter="url(#filter1_di_374_692)">
        <ellipse cx="106.012" cy="408.023" rx="64.394" ry="19.9218" transform="rotate(-5.51947 106.012 408.023)" fill="#E5E5E5"/>
    </g>
    <g filter="url(#filter2_di_374_692)">
        <ellipse cx="919.817" cy="392.162" rx="64.394" ry="19.9218" transform="rotate(4.72862 919.817 392.162)" fill="#E5E5E5"/>
    </g>
    <g filter="url(#filter3_di_374_692)">
        <ellipse cx="1334.82" cy="442.162" rx="64.394" ry="19.9218" transform="rotate(4.72862 1334.82 442.162)" fill="#E5E5E5"/>
    </g>
    <g filter="url(#filter4_di_374_692)">
        <ellipse cx="1097.89" cy="512.441" rx="121.549" ry="45.5765" transform="rotate(4.72862 1097.89 512.441)" fill="#E5E5E5"/>
    </g>
    <g filter="url(#filter5_di_374_692)">
        <ellipse cx="333.451" cy="487.57" rx="64.394" ry="24.4902" transform="rotate(-5.51947 333.451 487.57)" fill="#E5E5E5"/>
    </g>
    <g filter="url(#filter6_di_374_692)">
        <ellipse cx="486.264" cy="381.88" rx="64.394" ry="24.4902" transform="rotate(-2.14237 486.264 381.88)" fill="#E5E5E5"/>
    </g>
    <ellipse cx="314.5" cy="376.5" rx="5.5" ry="2.5" fill="black" fill-opacity="0.3"/>
    <g filter="url(#filter7_ii_374_692)">
        <path d="M305.163 279.994L311.355 375.482C311.445 376.87 312.643 377.922 314.031 377.832L315.287 377.75C316.675 377.66 317.727 376.462 317.637 375.075L311.445 279.587C311.355 278.199 310.157 277.147 308.769 277.237L307.513 277.318C306.125 277.408 305.073 278.606 305.163 279.994Z" fill="#2D3356"/>
        <path d="M305.163 279.994L311.355 375.482C311.445 376.87 312.643 377.922 314.031 377.832L315.287 377.75C316.675 377.66 317.727 376.462 317.637 375.075L311.445 279.587C311.355 278.199 310.157 277.147 308.769 277.237L307.513 277.318C306.125 277.408 305.073 278.606 305.163 279.994Z" stroke="black"/>
    </g>
    <path d="M327.476 283.594C321.194 284.001 314.225 281.93 311.526 280.843L312.504 295.92L313.482 310.997C316.181 312.084 323.149 314.155 329.431 313.748C335.714 313.341 342.356 310.386 344.892 308.96C347.428 307.534 354.071 304.58 360.353 304.173C366.635 303.765 373.604 305.837 376.303 306.923L374.347 276.769C371.648 275.683 364.68 273.611 358.398 274.018C352.116 274.426 345.473 277.38 342.937 278.806C340.401 280.232 333.758 283.186 327.476 283.594Z" fill="#46C8DA"/>
    <path d="M313.2 308.96C319 311.46 326.5 317 327.5 295C329.031 288.894 342.074 308.35 344.61 306.923C349.5 306 358 306.923 360.071 289C361.468 282.862 373.322 303.086 376.021 304.173L376.021 306.923C373.322 305.837 366.353 303.765 360.071 304.173C353.789 304.58 347.146 307.534 344.61 308.96C342.074 310.386 335.432 313.341 329.149 313.748C322.867 314.155 315.899 312.084 313.2 310.997L313.2 308.96Z" fill="black" fill-opacity="0.05"/>
    <path fill-rule="evenodd" clip-rule="evenodd" d="M341.893 296.39C341.37 296.171 340.941 295.72 340.795 295.036C340.648 294.351 340.855 293.764 341.242 293.351C341.588 292.982 342.027 292.8 342.346 292.731C342.666 292.663 343.141 292.649 343.607 292.844C344.131 293.063 344.559 293.514 344.706 294.198C344.852 294.883 344.646 295.47 344.258 295.884C343.913 296.252 343.473 296.435 343.154 296.503C342.835 296.571 342.359 296.585 341.893 296.39Z" fill="white"/>
    <path fill-rule="evenodd" clip-rule="evenodd" d="M349.48 290.871C347.519 290.469 344.864 290.503 342.001 291.116C339.137 291.729 336.701 292.785 335.077 293.954C333.373 295.182 332.879 296.277 333.03 296.982C333.181 297.687 334.08 298.484 336.137 298.905C338.098 299.307 340.752 299.273 343.616 298.66C346.479 298.047 348.915 296.992 350.539 295.822C352.244 294.595 352.738 293.5 352.587 292.795C352.436 292.09 351.537 291.293 349.48 290.871ZM353.565 292.586C353.007 289.982 347.739 288.902 341.799 290.173C335.858 291.445 331.495 294.587 332.052 297.191C332.609 299.795 337.877 300.875 343.818 299.603C349.758 298.331 354.122 295.189 353.565 292.586Z" fill="white"/>
    <path fill-rule="evenodd" clip-rule="evenodd" d="M342.877 286.98C341.511 288.427 340.18 290.668 339.261 293.366C338.341 296.064 338.037 298.619 338.251 300.55C338.475 302.576 339.202 303.523 339.911 303.74C340.619 303.957 341.794 303.592 343.227 302.073C344.592 300.626 345.923 298.385 346.843 295.687C347.763 292.989 348.067 290.434 347.853 288.504C347.628 286.478 346.901 285.53 346.193 285.314C345.484 285.097 344.309 285.462 342.877 286.98ZM346.507 284.392C343.889 283.591 340.221 287.479 338.313 293.076C336.405 298.673 336.979 303.86 339.597 304.661C342.214 305.462 345.882 301.575 347.791 295.978C349.699 290.38 349.124 285.194 346.507 284.392Z" fill="white"/>
    <path fill-rule="evenodd" clip-rule="evenodd" d="M336.205 290.997C336.801 292.846 338.124 295.053 340.068 297.138C342.012 299.223 344.143 300.722 345.982 301.484C347.911 302.282 349.132 302.134 349.689 301.646C350.247 301.158 350.522 299.996 349.898 298.056C349.303 296.207 347.979 294 346.035 291.915C344.091 289.831 341.96 288.331 340.122 287.57C338.193 286.771 336.972 286.919 336.414 287.407C335.857 287.895 335.581 289.057 336.205 290.997ZM335.75 286.695C333.691 288.498 335.29 293.465 339.322 297.791C343.355 302.116 348.293 304.161 350.353 302.358C352.413 300.556 350.814 295.588 346.781 291.263C342.749 286.937 337.81 284.892 335.75 286.695Z" fill="white"/>
    <g opacity="0.5" filter="url(#filter8_d_374_692)">
        <path d="M1127 389.881C1127 395.404 1104.51 397.381 1078 397.381C1051.49 397.381 1032 390.904 1032 385.381C1032 379.858 1055.49 372.381 1082 372.381C1108.51 372.381 1127 384.358 1127 389.881Z" fill="#111111" fill-opacity="0.01"/>
    </g>
    <g filter="url(#filter9_ii_374_692)">
        <path d="M1075.9 384.922L1080 380.757M1123.03 337.012L1113.2 347.01L1099.17 361.267L1080 380.757M1103.12 387.734L1089.43 371.174L1084.27 364.509L1081.58 361.884M1080 380.757L1056.5 383" stroke="#4E3331" stroke-width="4" stroke-linecap="round" stroke-linejoin="round"/>
    </g>
    <path d="M1071.22 366.827L1070.88 367.192L1083.55 364.434L1080.86 361.809L1078.87 362.154C1076.53 364.292 1073.9 365.81 1071.22 366.827Z" fill="url(#paint0_linear_374_692)"/>
    <path d="M1053.59 366.553C1056.19 368.302 1061.57 369.163 1067.3 367.97L1067.75 367.871C1068.91 367.61 1070.07 367.265 1071.22 366.827L1075.02 362.824L1053.59 366.553Z" fill="url(#paint1_linear_374_692)"/>
    <path d="M1071.22 366.827C1073.9 365.81 1076.53 364.292 1078.87 362.154L1075.02 362.824L1071.22 366.827Z" fill="url(#paint2_linear_374_692)"/>
    <path d="M1112.47 346.935L1085.57 351.718C1084.02 356.202 1081.65 359.615 1078.87 362.154L1080.86 361.809C1082.26 362.75 1084.44 363.432 1087.04 363.674L1098.45 361.192L1112.47 346.935Z" fill="url(#paint3_linear_374_692)"/>
    <path d="M1087.04 363.674C1084.44 363.432 1082.26 362.75 1080.86 361.809L1083.55 364.434L1087.04 363.674Z" fill="url(#paint4_linear_374_692)"/>
    <path d="M1098.45 361.192L1087.04 363.674C1090.07 363.954 1093.65 363.64 1097.21 362.445L1098.45 361.192Z" fill="url(#paint5_linear_374_692)"/>
    <path d="M1101.53 360.521C1106.07 357.937 1110.16 353.626 1112.47 346.935L1098.45 361.192L1101.53 360.521Z" fill="url(#paint6_linear_374_692)"/>
    <path d="M1101.53 360.521L1098.45 361.192L1097.21 362.445C1098.67 361.957 1100.12 361.322 1101.53 360.521Z" fill="url(#paint7_linear_374_692)"/>
    <path d="M1085.65 351.769L1112.55 346.987C1110.24 353.678 1106.15 357.989 1101.61 360.572C1100.2 361.374 1098.75 362.009 1097.29 362.497C1093.73 363.692 1090.14 364.006 1087.12 363.725L1083.63 364.486L1070.95 367.244L1067.83 367.923C1067.68 367.957 1067.53 367.99 1067.38 368.021L1067.83 367.923C1068.98 367.662 1070.15 367.317 1071.3 366.879C1073.98 365.862 1076.61 364.344 1078.95 362.206C1081.73 359.667 1084.1 356.253 1085.65 351.769Z" fill="black" fill-opacity="0.5"/>
    <g filter="url(#filter10_ii_374_692)">
        <path d="M1049.73 389.779L1062.05 376.956M1096.86 341.869L1086.3 351.793L1071.95 366.902L1071.6 367.267L1062.05 376.956M1062.05 376.956L1054.32 366.628M1062.05 376.956L1070 387.121M1074.04 392.291L1070 387.121M1070 387.121L1100 384" stroke="#4E3331" stroke-width="4" stroke-linecap="round" stroke-linejoin="round"/>
    </g>
    <defs>
        <filter id="filter0_dd_374_692" x="-156" y="0.5" width="1752" height="600.5" filterUnits="userSpaceOnUse" color-interpolation-filters="sRGB">
            <feFlood flood-opacity="0" result="BackgroundImageFix"/>
            <feColorMatrix in="SourceAlpha" type="matrix" values="0 0 0 0 0 0 0 0 0 0 0 0 0 0 0 0 0 0 127 0" result="hardAlpha"/>
            <feOffset dy="-32"/>
            <feGaussianBlur stdDeviation="24"/>
            <feComposite in2="hardAlpha" operator="out"/>
            <feColorMatrix type="matrix" values="0 0 0 0 1 0 0 0 0 1 0 0 0 0 1 0 0 0 0.5 0"/>
            <feBlend mode="normal" in2="BackgroundImageFix" result="effect1_dropShadow_374_692"/>
            <feColorMatrix in="SourceAlpha" type="matrix" values="0 0 0 0 0 0 0 0 0 0 0 0 0 0 0 0 0 0 127 0" result="hardAlpha"/>
            <feOffset dy="-156"/>
            <feGaussianBlur stdDeviation="78"/>
            <feComposite in2="hardAlpha" operator="out"/>
            <feColorMatrix type="matrix" values="0 0 0 0 0.233819 0 0 0 0 0.443625 0 0 0 0 0.758333 0 0 0 0.4 0"/>
            <feBlend mode="normal" in2="effect1_dropShadow_374_692" result="effect2_dropShadow_374_692"/>
            <feBlend mode="normal" in="SourceGraphic" in2="effect2_dropShadow_374_692" result="shape"/>
        </filter>
        <filter id="filter1_di_374_692" x="-22.113" y="323.243" width="256.249" height="169.56" filterUnits="userSpaceOnUse" color-interpolation-filters="sRGB">
            <feFlood flood-opacity="0" result="BackgroundImageFix"/>
            <feColorMatrix in="SourceAlpha" type="matrix" values="0 0 0 0 0 0 0 0 0 0 0 0 0 0 0 0 0 0 127 0" result="hardAlpha"/>
            <feOffset/>
            <feGaussianBlur stdDeviation="32"/>
            <feComposite in2="hardAlpha" operator="out"/>
            <feColorMatrix type="matrix" values="0 0 0 0 0.2375 0 0 0 0 0.2375 0 0 0 0 0.2375 0 0 0 0.05 0"/>
            <feBlend mode="normal" in2="BackgroundImageFix" result="effect1_dropShadow_374_692"/>
            <feBlend mode="normal" in="SourceGraphic" in2="effect1_dropShadow_374_692" result="shape"/>
            <feColorMatrix in="SourceAlpha" type="matrix" values="0 0 0 0 0 0 0 0 0 0 0 0 0 0 0 0 0 0 127 0" result="hardAlpha"/>
            <feOffset dy="8"/>
            <feComposite in2="hardAlpha" operator="arithmetic" k2="-1" k3="1"/>
            <feColorMatrix type="matrix" values="0 0 0 0 0 0 0 0 0 0 0 0 0 0 0 0 0 0 0.05 0"/>
            <feBlend mode="normal" in2="shape" result="effect2_innerShadow_374_692"/>
        </filter>
        <filter id="filter2_di_374_692" x="791.621" y="307.606" width="256.392" height="169.113" filterUnits="userSpaceOnUse" color-interpolation-filters="sRGB">
            <feFlood flood-opacity="0" result="BackgroundImageFix"/>
            <feColorMatrix in="SourceAlpha" type="matrix" values="0 0 0 0 0 0 0 0 0 0 0 0 0 0 0 0 0 0 127 0" result="hardAlpha"/>
            <feOffset/>
            <feGaussianBlur stdDeviation="32"/>
            <feComposite in2="hardAlpha" operator="out"/>
            <feColorMatrix type="matrix" values="0 0 0 0 0.2375 0 0 0 0 0.2375 0 0 0 0 0.2375 0 0 0 0.05 0"/>
            <feBlend mode="normal" in2="BackgroundImageFix" result="effect1_dropShadow_374_692"/>
            <feBlend mode="normal" in="SourceGraphic" in2="effect1_dropShadow_374_692" result="shape"/>
            <feColorMatrix in="SourceAlpha" type="matrix" values="0 0 0 0 0 0 0 0 0 0 0 0 0 0 0 0 0 0 127 0" result="hardAlpha"/>
            <feOffset dy="8"/>
            <feComposite in2="hardAlpha" operator="arithmetic" k2="-1" k3="1"/>
            <feColorMatrix type="matrix" values="0 0 0 0 0 0 0 0 0 0 0 0 0 0 0 0 0 0 0.05 0"/>
            <feBlend mode="normal" in2="shape" result="effect2_innerShadow_374_692"/>
        </filter>
        <filter id="filter3_di_374_692" x="1206.62" y="357.606" width="256.392" height="169.113" filterUnits="userSpaceOnUse" color-interpolation-filters="sRGB">
            <feFlood flood-opacity="0" result="BackgroundImageFix"/>
            <feColorMatrix in="SourceAlpha" type="matrix" values="0 0 0 0 0 0 0 0 0 0 0 0 0 0 0 0 0 0 127 0" result="hardAlpha"/>
            <feOffset/>
            <feGaussianBlur stdDeviation="32"/>
            <feComposite in2="hardAlpha" operator="out"/>
            <feColorMatrix type="matrix" values="0 0 0 0 0.2375 0 0 0 0 0.2375 0 0 0 0 0.2375 0 0 0 0.05 0"/>
            <feBlend mode="normal" in2="BackgroundImageFix" result="effect1_dropShadow_374_692"/>
            <feBlend mode="normal" in="SourceGraphic" in2="effect1_dropShadow_374_692" result="shape"/>
            <feColorMatrix in="SourceAlpha" type="matrix" values="0 0 0 0 0 0 0 0 0 0 0 0 0 0 0 0 0 0 127 0" result="hardAlpha"/>
            <feOffset dy="8"/>
            <feComposite in2="hardAlpha" operator="arithmetic" k2="-1" k3="1"/>
            <feColorMatrix type="matrix" values="0 0 0 0 0 0 0 0 0 0 0 0 0 0 0 0 0 0 0.05 0"/>
            <feBlend mode="normal" in2="shape" result="effect2_innerShadow_374_692"/>
        </filter>
        <filter id="filter4_di_374_692" x="912.698" y="401.918" width="370.39" height="221.047" filterUnits="userSpaceOnUse" color-interpolation-filters="sRGB">
            <feFlood flood-opacity="0" result="BackgroundImageFix"/>
            <feColorMatrix in="SourceAlpha" type="matrix" values="0 0 0 0 0 0 0 0 0 0 0 0 0 0 0 0 0 0 127 0" result="hardAlpha"/>
            <feOffset/>
            <feGaussianBlur stdDeviation="32"/>
            <feComposite in2="hardAlpha" operator="out"/>
            <feColorMatrix type="matrix" values="0 0 0 0 0.2375 0 0 0 0 0.2375 0 0 0 0 0.2375 0 0 0 0.05 0"/>
            <feBlend mode="normal" in2="BackgroundImageFix" result="effect1_dropShadow_374_692"/>
            <feBlend mode="normal" in="SourceGraphic" in2="effect1_dropShadow_374_692" result="shape"/>
            <feColorMatrix in="SourceAlpha" type="matrix" values="0 0 0 0 0 0 0 0 0 0 0 0 0 0 0 0 0 0 127 0" result="hardAlpha"/>
            <feOffset dy="8"/>
            <feComposite in2="hardAlpha" operator="arithmetic" k2="-1" k3="1"/>
            <feColorMatrix type="matrix" values="0 0 0 0 0 0 0 0 0 0 0 0 0 0 0 0 0 0 0.05 0"/>
            <feBlend mode="normal" in2="shape" result="effect2_innerShadow_374_692"/>
        </filter>
        <filter id="filter5_di_374_692" x="205.312" y="398.413" width="256.279" height="178.315" filterUnits="userSpaceOnUse" color-interpolation-filters="sRGB">
            <feFlood flood-opacity="0" result="BackgroundImageFix"/>
            <feColorMatrix in="SourceAlpha" type="matrix" values="0 0 0 0 0 0 0 0 0 0 0 0 0 0 0 0 0 0 127 0" result="hardAlpha"/>
            <feOffset/>
            <feGaussianBlur stdDeviation="32"/>
            <feComposite in2="hardAlpha" operator="out"/>
            <feColorMatrix type="matrix" values="0 0 0 0 0.2375 0 0 0 0 0.2375 0 0 0 0 0.2375 0 0 0 0.05 0"/>
            <feBlend mode="normal" in2="BackgroundImageFix" result="effect1_dropShadow_374_692"/>
            <feBlend mode="normal" in="SourceGraphic" in2="effect1_dropShadow_374_692" result="shape"/>
            <feColorMatrix in="SourceAlpha" type="matrix" values="0 0 0 0 0 0 0 0 0 0 0 0 0 0 0 0 0 0 127 0" result="hardAlpha"/>
            <feOffset dy="8"/>
            <feComposite in2="hardAlpha" operator="arithmetic" k2="-1" k3="1"/>
            <feColorMatrix type="matrix" values="0 0 0 0 0 0 0 0 0 0 0 0 0 0 0 0 0 0 0.05 0"/>
            <feBlend mode="normal" in2="shape" result="effect2_innerShadow_374_692"/>
        </filter>
        <filter id="filter6_di_374_692" x="357.909" y="293.287" width="256.711" height="177.186" filterUnits="userSpaceOnUse" color-interpolation-filters="sRGB">
            <feFlood flood-opacity="0" result="BackgroundImageFix"/>
            <feColorMatrix in="SourceAlpha" type="matrix" values="0 0 0 0 0 0 0 0 0 0 0 0 0 0 0 0 0 0 127 0" result="hardAlpha"/>
            <feOffset/>
            <feGaussianBlur stdDeviation="32"/>
            <feComposite in2="hardAlpha" operator="out"/>
            <feColorMatrix type="matrix" values="0 0 0 0 0.2375 0 0 0 0 0.2375 0 0 0 0 0.2375 0 0 0 0.05 0"/>
            <feBlend mode="normal" in2="BackgroundImageFix" result="effect1_dropShadow_374_692"/>
            <feBlend mode="normal" in="SourceGraphic" in2="effect1_dropShadow_374_692" result="shape"/>
            <feColorMatrix in="SourceAlpha" type="matrix" values="0 0 0 0 0 0 0 0 0 0 0 0 0 0 0 0 0 0 127 0" result="hardAlpha"/>
            <feOffset dy="8"/>
            <feComposite in2="hardAlpha" operator="arithmetic" k2="-1" k3="1"/>
            <feColorMatrix type="matrix" values="0 0 0 0 0 0 0 0 0 0 0 0 0 0 0 0 0 0 0.05 0"/>
            <feBlend mode="normal" in2="shape" result="effect2_innerShadow_374_692"/>
        </filter>
        <filter id="filter7_ii_374_692" x="305.157" y="277.231" width="12.485" height="100.606" filterUnits="userSpaceOnUse" color-interpolation-filters="sRGB">
            <feFlood flood-opacity="0" result="BackgroundImageFix"/>
            <feBlend mode="normal" in="SourceGraphic" in2="BackgroundImageFix" result="shape"/>
            <feColorMatrix in="SourceAlpha" type="matrix" values="0 0 0 0 0 0 0 0 0 0 0 0 0 0 0 0 0 0 127 0" result="hardAlpha"/>
            <feOffset dx="-4"/>
            <feComposite in2="hardAlpha" operator="arithmetic" k2="-1" k3="1"/>
            <feColorMatrix type="matrix" values="0 0 0 0 1 0 0 0 0 1 0 0 0 0 1 0 0 0 0.15 0"/>
            <feBlend mode="normal" in2="shape" result="effect1_innerShadow_374_692"/>
            <feColorMatrix in="SourceAlpha" type="matrix" values="0 0 0 0 0 0 0 0 0 0 0 0 0 0 0 0 0 0 127 0" result="hardAlpha"/>
            <feOffset dx="4"/>
            <feComposite in2="hardAlpha" operator="arithmetic" k2="-1" k3="1"/>
            <feColorMatrix type="matrix" values="0 0 0 0 0 0 0 0 0 0 0 0 0 0 0 0 0 0 0.15 0"/>
            <feBlend mode="normal" in2="effect1_innerShadow_374_692" result="effect2_innerShadow_374_692"/>
        </filter>
        <filter id="filter8_d_374_692" x="1032" y="372.381" width="95" height="29" filterUnits="userSpaceOnUse" color-interpolation-filters="sRGB">
            <feFlood flood-opacity="0" result="BackgroundImageFix"/>
            <feColorMatrix in="SourceAlpha" type="matrix" values="0 0 0 0 0 0 0 0 0 0 0 0 0 0 0 0 0 0 127 0" result="hardAlpha"/>
            <feOffset dy="4"/>
            <feColorMatrix type="matrix" values="0 0 0 0 0 0 0 0 0 0 0 0 0 0 0 0 0 0 0.1 0"/>
            <feBlend mode="normal" in2="BackgroundImageFix" result="effect1_dropShadow_374_692"/>
            <feBlend mode="normal" in="SourceGraphic" in2="effect1_dropShadow_374_692" result="shape"/>
        </filter>
        <filter id="filter9_ii_374_692" x="1054.5" y="335.012" width="70.5349" height="54.7222" filterUnits="userSpaceOnUse" color-interpolation-filters="sRGB">
            <feFlood flood-opacity="0" result="BackgroundImageFix"/>
            <feBlend mode="normal" in="SourceGraphic" in2="BackgroundImageFix" result="shape"/>
            <feColorMatrix in="SourceAlpha" type="matrix" values="0 0 0 0 0 0 0 0 0 0 0 0 0 0 0 0 0 0 127 0" result="hardAlpha"/>
            <feOffset dx="-1" dy="-2"/>
            <feComposite in2="hardAlpha" operator="arithmetic" k2="-1" k3="1"/>
            <feColorMatrix type="matrix" values="0 0 0 0 0 0 0 0 0 0 0 0 0 0 0 0 0 0 0.25 0"/>
            <feBlend mode="normal" in2="shape" result="effect1_innerShadow_374_692"/>
            <feColorMatrix in="SourceAlpha" type="matrix" values="0 0 0 0 0 0 0 0 0 0 0 0 0 0 0 0 0 0 127 0" result="hardAlpha"/>
            <feOffset dx="1" dy="2"/>
            <feComposite in2="hardAlpha" operator="arithmetic" k2="-1" k3="1"/>
            <feColorMatrix type="matrix" values="0 0 0 0 1 0 0 0 0 1 0 0 0 0 1 0 0 0 0.05 0"/>
            <feBlend mode="normal" in2="effect1_innerShadow_374_692" result="effect2_innerShadow_374_692"/>
        </filter>
        <filter id="filter10_ii_374_692" x="1047.73" y="339.869" width="54.2743" height="54.4223" filterUnits="userSpaceOnUse" color-interpolation-filters="sRGB">
            <feFlood flood-opacity="0" result="BackgroundImageFix"/>
            <feBlend mode="normal" in="SourceGraphic" in2="BackgroundImageFix" result="shape"/>
            <feColorMatrix in="SourceAlpha" type="matrix" values="0 0 0 0 0 0 0 0 0 0 0 0 0 0 0 0 0 0 127 0" result="hardAlpha"/>
            <feOffset dx="-1" dy="-2"/>
            <feComposite in2="hardAlpha" operator="arithmetic" k2="-1" k3="1"/>
            <feColorMatrix type="matrix" values="0 0 0 0 0 0 0 0 0 0 0 0 0 0 0 0 0 0 0.25 0"/>
            <feBlend mode="normal" in2="shape" result="effect1_innerShadow_374_692"/>
            <feColorMatrix in="SourceAlpha" type="matrix" values="0 0 0 0 0 0 0 0 0 0 0 0 0 0 0 0 0 0 127 0" result="hardAlpha"/>
            <feOffset dx="1" dy="2"/>
            <feComposite in2="hardAlpha" operator="arithmetic" k2="-1" k3="1"/>
            <feColorMatrix type="matrix" values="0 0 0 0 1 0 0 0 0 1 0 0 0 0 1 0 0 0 0.05 0"/>
            <feBlend mode="normal" in2="effect1_innerShadow_374_692" result="effect2_innerShadow_374_692"/>
        </filter>
        <linearGradient id="paint0_linear_374_692" x1="1056.4" y1="367.826" x2="1120.79" y2="355.202" gradientUnits="userSpaceOnUse">
            <stop stop-color="#1EFF93"/>
            <stop offset="0.270833" stop-color="#127AC6"/>
            <stop offset="0.511451" stop-color="#1EFF93"/>
            <stop offset="0.776042" stop-color="#0978E0"/>
            <stop offset="1" stop-color="#1EFF93"/>
        </linearGradient>
        <linearGradient id="paint1_linear_374_692" x1="1056.4" y1="367.826" x2="1120.79" y2="355.202" gradientUnits="userSpaceOnUse">
            <stop stop-color="#1EFF93"/>
            <stop offset="0.270833" stop-color="#127AC6"/>
            <stop offset="0.511451" stop-color="#1EFF93"/>
            <stop offset="0.776042" stop-color="#0978E0"/>
            <stop offset="1" stop-color="#1EFF93"/>
        </linearGradient>
        <linearGradient id="paint2_linear_374_692" x1="1056.4" y1="367.826" x2="1120.79" y2="355.202" gradientUnits="userSpaceOnUse">
            <stop stop-color="#1EFF93"/>
            <stop offset="0.270833" stop-color="#127AC6"/>
            <stop offset="0.511451" stop-color="#1EFF93"/>
            <stop offset="0.776042" stop-color="#0978E0"/>
            <stop offset="1" stop-color="#1EFF93"/>
        </linearGradient>
        <linearGradient id="paint3_linear_374_692" x1="1056.4" y1="367.826" x2="1120.79" y2="355.202" gradientUnits="userSpaceOnUse">
            <stop stop-color="#1EFF93"/>
            <stop offset="0.270833" stop-color="#127AC6"/>
            <stop offset="0.511451" stop-color="#1EFF93"/>
            <stop offset="0.776042" stop-color="#0978E0"/>
            <stop offset="1" stop-color="#1EFF93"/>
        </linearGradient>
        <linearGradient id="paint4_linear_374_692" x1="1056.4" y1="367.826" x2="1120.79" y2="355.202" gradientUnits="userSpaceOnUse">
            <stop stop-color="#1EFF93"/>
            <stop offset="0.270833" stop-color="#127AC6"/>
            <stop offset="0.511451" stop-color="#1EFF93"/>
            <stop offset="0.776042" stop-color="#0978E0"/>
            <stop offset="1" stop-color="#1EFF93"/>
        </linearGradient>
        <linearGradient id="paint5_linear_374_692" x1="1056.4" y1="367.826" x2="1120.79" y2="355.202" gradientUnits="userSpaceOnUse">
            <stop stop-color="#1EFF93"/>
            <stop offset="0.270833" stop-color="#127AC6"/>
            <stop offset="0.511451" stop-color="#1EFF93"/>
            <stop offset="0.776042" stop-color="#0978E0"/>
            <stop offset="1" stop-color="#1EFF93"/>
        </linearGradient>
        <linearGradient id="paint6_linear_374_692" x1="1056.4" y1="367.826" x2="1120.79" y2="355.202" gradientUnits="userSpaceOnUse">
            <stop stop-color="#1EFF93"/>
            <stop offset="0.270833" stop-color="#127AC6"/>
            <stop offset="0.511451" stop-color="#1EFF93"/>
            <stop offset="0.776042" stop-color="#0978E0"/>
            <stop offset="1" stop-color="#1EFF93"/>
        </linearGradient>
        <linearGradient id="paint7_linear_374_692" x1="1056.4" y1="367.826" x2="1120.79" y2="355.202" gradientUnits="userSpaceOnUse">
            <stop stop-color="#1EFF93"/>
            <stop offset="0.270833" stop-color="#127AC6"/>
            <stop offset="0.511451" stop-color="#1EFF93"/>
            <stop offset="0.776042" stop-color="#0978E0"/>
            <stop offset="1" stop-color="#1EFF93"/>
        </linearGradient>
    </defs>
</svg>
