<svg width="85" height="85" viewBox="0 0 85 85" fill="none" xmlns="http://www.w3.org/2000/svg">
<circle cx="42.5" cy="42.5" r="42.5" fill="url(#paint0_linear_374_764)"/>
<mask id="mask0_374_764" style="mask-type:alpha" maskUnits="userSpaceOnUse" x="0" y="0" width="85" height="85">
<circle cx="42.5" cy="42.5" r="42.5" fill="#C4C4C4"/>
</mask>
<g mask="url(#mask0_374_764)">
<path d="M66.1247 53.7282C64.7038 57.904 56.3525 61.1907 50.4503 58.2319C44.1716 54.983 39.6475 48.7636 40.893 45.2236C42.4871 42.5338 51.1114 48.5312 55.8601 51.3452C59.6501 53.5911 67.6917 49.3311 66.1247 53.7282Z" fill="#EC24D3" fill-opacity="0.75"/>
<path d="M8.0418 52.7147C6.82054 61.4873 1.05448 69.5619 -4.70722 70.6917C-10.482 71.6209 -9.66202 62.399 -5.63188 53.8795C-2.59619 46.119 -1.36185 38.2407 1.20278 37.5776C4.74442 37.2155 8.49977 44.0338 8.0418 52.7147Z" fill="#EC24D3" fill-opacity="0.75"/>
<path d="M55.0688 7.78757C55.6183 10.2741 47.0565 13.2012 37.0509 12.621C27.8915 11.8707 20.4811 7.58691 20.0232 2.16895C19.5172 -3.87717 24.3586 -10.4991 32.4712 -2.8913C41.8225 4.41117 54.179 6.01649 55.0688 7.78757Z" fill="#EC24D3" fill-opacity="0.75"/>
<path d="M-3.68224 24.1418C-8.6414 20.9573 -12.7021 13.8424 -10.4035 9.4147C-7.15409 5.83327 -0.341235 5.92924 3.97241 8.36339C8.08541 10.5751 9.17582 15.8185 6.81182 20.303C4.91015 25.1015 0.600875 27.0427 -3.68224 24.1418Z" fill="#EC24D3" fill-opacity="0.75"/>
<path d="M89.7349 11.2338C63.4474 25.6947 91.3487 48.7232 87.9467 52.1215C78.844 54.006 64.6425 46.228 59.0902 34.5327C54.1834 24.1723 56.1766 14.0169 65.6501 10.1258C75.7167 5.25309 92.208 3.11121 89.7349 11.2338Z" fill="#EC24D3" fill-opacity="0.75"/>
<path d="M45.2333 83.8004C42.9307 88.5711 36.0347 98.6801 35.2845 90.9589C34.447 84.3936 39.0311 75.9352 46.3412 71.1018C54.589 66.7526 62.8979 67.0666 63.2817 70.443C63.0636 73.2087 49.0451 75.9029 45.2333 83.8004Z" fill="#EC24D3" fill-opacity="0.75"/>
<path d="M95.1215 66.9358C87.1049 68.07 79.7337 69.1518 77.0252 68.2881C74.1203 67.3109 75.8563 64.3359 80.9812 61.8363C85.6394 59.3279 93.5514 59.2887 100.604 62.2812C107.958 65.2607 104.56 66.7875 95.1215 66.9358Z" fill="#EC24D3" fill-opacity="0.75"/>
<path d="M26.5045 99.8885C22.7884 104.574 18.8572 92.2064 12.6695 89.4844C3.06595 85.2599 -20.6707 98.9898 -14.1588 88.0841C-6.94473 77.7368 6.31459 73.0604 16.7171 76.2362C25.9768 80.8558 29.7321 92.6253 26.5045 99.8885Z" fill="#EC24D3" fill-opacity="0.75"/>
<path d="M33.1162 80.7021C30.8385 85.662 20.5083 82.322 16.2562 74.4924C15.5321 67.1913 23.8127 60.5102 31.128 58.7724C37.5519 56.8534 40.8654 59.597 38.5004 64.5029C35.3282 68.6918 33.0496 75.5267 33.1162 80.7021Z" fill="#EC24D3" fill-opacity="0.75"/>
<path d="M39.4429 27.189C40.6855 34.24 33.8902 45.2738 24.1518 51.1667C13.4638 57.022 18.6991 43.8508 15.9433 39.1549C11.2903 31.2264 1.44415 23.9842 15.5014 19.1113C28.5988 16.4186 38.3111 21.383 39.4429 27.189Z" fill="#EC24D3" fill-opacity="0.75"/>
</g>
<path fill-rule="evenodd" clip-rule="evenodd" d="M8.27659 17.2954C9.97302 42.3853 28.6157 79.3983 82.9434 55.5975C77.4214 72.6602 61.4017 84.9995 42.5 84.9995C19.0279 84.9995 0 65.9716 0 42.4995C0 33.0642 3.07461 24.3471 8.27659 17.2954Z" fill="#01050C" fill-opacity="0.35"/>
<defs>
<linearGradient id="paint0_linear_374_764" x1="42.5" y1="0" x2="42.5" y2="85" gradientUnits="userSpaceOnUse">
<stop stop-color="#4ABEA0"/>
<stop offset="1" stop-color="#22BDEE"/>
</linearGradient>
</defs>
</svg>
