<svg width="468" height="474" viewBox="0 0 468 474" fill="none" xmlns="http://www.w3.org/2000/svg">
<g filter="url(#filter0_dd_2724_2184)">
<circle cx="298.405" cy="303.515" r="137.5" fill="#CCA540"/>
<mask id="mask0_2724_2184" style="mask-type:alpha" maskUnits="userSpaceOnUse" x="160" y="166" width="276" height="276">
<circle cx="298.405" cy="303.515" r="137.5" fill="#C4C4C4"/>
</mask>
<g mask="url(#mask0_2724_2184)">
<path fill-rule="evenodd" clip-rule="evenodd" d="M363.445 155.893C332.242 164.525 299.187 177.092 274.601 195.486C215.414 239.766 152.111 250.52 119.232 252.188C112.009 252.555 105.856 246.996 105.49 239.773C105.123 232.55 110.682 226.398 117.905 226.031C147.443 224.532 205.165 214.725 258.911 174.515C287.378 153.219 324.13 139.595 356.462 130.651C383.607 123.141 408.626 118.684 424.037 115.939C427.056 115.401 429.706 114.929 431.931 114.513C439.039 113.182 445.881 117.867 447.212 124.975C448.542 132.084 443.858 138.926 436.749 140.256C434.32 140.711 431.508 141.213 428.362 141.774C412.87 144.538 389.273 148.748 363.445 155.893ZM350.803 219.669C329.138 219.626 305.643 227.664 285.917 252.048C260.851 283.031 228.12 295.478 198.061 298.511C168.306 301.513 140.596 295.399 123.699 288.617C116.987 285.923 113.73 278.298 116.424 271.586C119.118 264.874 126.743 261.617 133.455 264.311C146.941 269.724 170.405 274.978 195.431 272.453C220.153 269.958 245.81 259.982 265.555 235.575C290.639 204.569 321.88 193.421 350.855 193.479C379.243 193.536 405.267 204.302 421.594 216.799C427.337 221.195 428.429 229.414 424.033 235.157C419.637 240.9 411.418 241.992 405.675 237.596C393.577 228.336 373.056 219.714 350.803 219.669ZM383.158 278.444C361.253 278.398 333.64 288.326 305.183 323.788C272.72 364.241 236.982 381.146 204.781 384.859C173.05 388.517 145.764 379.249 129.777 368.975C123.693 365.065 121.93 356.963 125.84 350.879C129.75 344.794 137.852 343.032 143.936 346.942C155.244 354.208 176.524 361.753 201.781 358.841C226.566 355.983 256.238 342.934 284.756 307.396C317.28 266.866 351.989 252.187 383.213 252.253C413.736 252.318 438.783 266.479 452.819 279.748C458.074 284.717 458.307 293.005 453.338 298.26C448.37 303.516 440.081 303.749 434.826 298.78C424.653 289.162 405.764 278.491 383.158 278.444ZM391.046 327.768C380.946 330.247 368.488 337.864 354.347 355.485C315.068 404.433 279.705 427.036 251.104 436.589C222.295 446.21 201.73 442.103 193.564 440.432C186.478 438.982 181.91 432.063 183.36 424.977C184.81 417.892 191.729 413.323 198.814 414.773L198.967 414.804C205.241 416.089 220.469 419.207 242.807 411.747C265.536 404.156 296.974 385.135 333.921 339.093C350.271 318.719 367.274 306.635 384.802 302.333C402.615 297.961 419.006 302.102 432.872 310.294C459.644 326.111 478.923 358.01 488.692 381.288C491.49 387.957 488.353 395.632 481.684 398.43C475.015 401.229 467.34 398.091 464.541 391.423C455.558 370.016 439.086 344.386 419.55 332.843C410.263 327.356 400.86 325.359 391.046 327.768ZM388.853 387.141C383.507 392.037 377.066 399.388 369.458 409.895C349.313 437.718 332.479 456.131 318.096 467.952C303.694 479.788 291.084 485.557 279.538 486.866C267.736 488.204 258.919 484.653 253.036 481.76C251.421 480.966 250.393 480.427 249.608 480.015C248.897 479.643 248.385 479.375 247.819 479.117C241.781 479.428 236.138 475.5 234.51 469.425C232.638 462.439 236.784 455.258 243.769 453.387C249.671 451.805 254.766 453.622 257.401 454.725C259.088 455.432 261.407 456.626 263.069 457.481C263.692 457.802 264.223 458.075 264.594 458.257C268.47 460.164 271.943 461.369 276.587 460.842C281.488 460.287 289.482 457.568 301.467 447.718C313.472 437.852 328.809 421.378 348.244 394.535C356.469 383.175 364.073 374.321 371.164 367.826C378.145 361.434 385.351 356.656 392.841 354.576C400.898 352.338 408.86 353.383 415.648 357.892C421.884 362.034 425.938 368.306 428.672 374.402C434.105 386.518 436.486 402.887 437.39 418.82C438.315 435.114 437.759 452.437 436.508 467.342C435.903 474.549 429.57 479.901 422.363 479.296C415.156 478.691 409.804 472.358 410.409 465.151C411.584 451.162 412.081 435.1 411.242 420.304C410.382 405.147 408.183 392.72 404.774 385.118C403.087 381.355 401.654 380.038 401.158 379.709C401.107 379.675 401.071 379.655 401.051 379.644L401.03 379.633C401.02 379.632 400.938 379.621 400.763 379.634C400.583 379.648 400.284 379.69 399.85 379.811C397.936 380.342 394.311 382.142 388.853 387.141ZM246.904 478.743C246.903 478.741 246.948 478.753 247.046 478.789C246.955 478.764 246.906 478.746 246.904 478.743Z" fill="#7775D7"/>
</g>
<path fill-rule="evenodd" clip-rule="evenodd" d="M187.682 221.973C193.171 303.146 253.486 422.892 429.251 345.89C411.387 401.093 359.558 441.015 298.405 441.015C222.466 441.015 160.905 379.454 160.905 303.515C160.905 272.989 170.852 244.787 187.682 221.973Z" fill="#01050C" fill-opacity="0.35"/>
</g>
<path d="M331.173 162.347L314.348 177.389C313.743 177.93 314.001 178.929 314.792 179.109L397.663 197.997M331.173 162.347L392.768 220.918C393.356 221.477 394.331 221.139 394.446 220.335L397.663 197.997M331.173 162.347L401.156 173.742M331.173 162.347L349.442 146.015M401.156 173.742L367.711 129.682M401.156 173.742L397.663 197.997M401.156 173.742L404.65 149.488M367.711 129.682L408.143 125.233M367.711 129.682L349.442 146.015M367.711 129.682L385.979 113.35M408.143 125.233L404.65 149.488M408.143 125.233L410.762 107.042L411.405 103.071M397.663 197.997L349.442 146.015M349.442 146.015L404.65 149.488M404.65 149.488L385.979 113.35M385.979 113.35L399.681 101.101L402.754 98.5149M401.864 85.9415C403.677 82.5592 409.336 76.8841 417.462 81.2413C425.589 85.5986 423.994 93.4524 422.18 96.8346C420.367 100.217 414.708 105.892 406.582 101.535C398.455 97.1775 400.05 89.3237 401.864 85.9415Z" stroke="#8B8B8B" stroke-width="8" stroke-linecap="round"/>
<g filter="url(#filter1_d_2724_2184)">
<path d="M358.124 59.9717C351.858 64.4206 341.994 77.0733 352.66 92.093M328.373 96.9586C321.707 87.5714 314.014 64.7928 336.569 48.7767M315.676 38.9362C303.146 47.834 283.417 73.1394 304.748 103.179" stroke="#33ABEE" stroke-width="8" stroke-linecap="round" stroke-linejoin="round"/>
</g>
<g filter="url(#filter2_ii_2724_2184)">
<ellipse cx="202.607" cy="41.7238" rx="47" ry="15.5" transform="rotate(8.01825 202.607 41.7238)" fill="#878787"/>
</g>
<g filter="url(#filter3_i_2724_2184)">
<path d="M221.907 33.7614C220.593 43.0872 211.479 42.4685 202.182 41.1589C192.885 39.8492 186.925 38.3446 188.239 29.0187C189.553 19.6929 198.155 13.1945 207.452 14.5041C216.749 15.8138 223.22 24.4355 221.907 33.7614Z" fill="#1EA6D1"/>
</g>
<g filter="url(#filter4_ii_2724_2184)">
<ellipse cx="50.5681" cy="66.1249" rx="47" ry="15.5" transform="rotate(-4.54142 50.5681 66.1249)" fill="#878787"/>
</g>
<g filter="url(#filter5_i_2724_2184)">
<path d="M67.6741 54.1562C68.4198 63.5446 59.3894 64.9226 50.0301 65.666C40.6707 66.4094 34.5266 66.2367 33.7809 56.8483C33.0352 47.46 40.0179 39.2466 49.3773 38.5032C58.7367 37.7598 66.9284 44.7679 67.6741 54.1562Z" fill="#70CFED"/>
</g>
<g filter="url(#filter6_ii_2724_2184)">
<ellipse cx="126.056" cy="129.807" rx="47" ry="15.5" transform="rotate(-5.43456 126.056 129.807)" fill="#878787"/>
</g>
<g filter="url(#filter7_i_2724_2184)">
<path d="M142.973 117.573C143.865 126.948 134.857 128.467 125.511 129.356C116.164 130.245 110.018 130.168 109.126 120.793C108.234 111.417 115.088 103.096 124.434 102.207C133.781 101.318 142.081 108.197 142.973 117.573Z" fill="#44E4C7"/>
</g>
<defs>
<filter id="filter0_dd_2724_2184" x="128.905" y="134.015" width="339" height="339" filterUnits="userSpaceOnUse" color-interpolation-filters="sRGB">
<feFlood flood-opacity="0" result="BackgroundImageFix"/>
<feColorMatrix in="SourceAlpha" type="matrix" values="0 0 0 0 0 0 0 0 0 0 0 0 0 0 0 0 0 0 127 0" result="hardAlpha"/>
<feOffset/>
<feGaussianBlur stdDeviation="16"/>
<feComposite in2="hardAlpha" operator="out"/>
<feColorMatrix type="matrix" values="0 0 0 0 0 0 0 0 0 0.58 0 0 0 0 1 0 0 0 0.25 0"/>
<feBlend mode="normal" in2="BackgroundImageFix" result="effect1_dropShadow_2724_2184"/>
<feColorMatrix in="SourceAlpha" type="matrix" values="0 0 0 0 0 0 0 0 0 0 0 0 0 0 0 0 0 0 127 0" result="hardAlpha"/>
<feOffset dx="2" dy="-2"/>
<feGaussianBlur stdDeviation="4"/>
<feComposite in2="hardAlpha" operator="out"/>
<feColorMatrix type="matrix" values="0 0 0 0 1 0 0 0 0 1 0 0 0 0 1 0 0 0 0.15 0"/>
<feBlend mode="normal" in2="effect1_dropShadow_2724_2184" result="effect2_dropShadow_2724_2184"/>
<feBlend mode="normal" in="SourceGraphic" in2="effect2_dropShadow_2724_2184" result="shape"/>
</filter>
<filter id="filter1_d_2724_2184" x="275.303" y="22.9358" width="102.821" height="104.243" filterUnits="userSpaceOnUse" color-interpolation-filters="sRGB">
<feFlood flood-opacity="0" result="BackgroundImageFix"/>
<feColorMatrix in="SourceAlpha" type="matrix" values="0 0 0 0 0 0 0 0 0 0 0 0 0 0 0 0 0 0 127 0" result="hardAlpha"/>
<feOffset dy="4"/>
<feGaussianBlur stdDeviation="8"/>
<feComposite in2="hardAlpha" operator="out"/>
<feColorMatrix type="matrix" values="0 0 0 0 0.0213541 0 0 0 0 0.754229 0 0 0 0 0.854167 0 0 0 0.25 0"/>
<feBlend mode="normal" in2="BackgroundImageFix" result="effect1_dropShadow_2724_2184"/>
<feBlend mode="normal" in="SourceGraphic" in2="effect1_dropShadow_2724_2184" result="shape"/>
</filter>
<filter id="filter2_ii_2724_2184" x="156.016" y="25.0294" width="93.1832" height="33.3887" filterUnits="userSpaceOnUse" color-interpolation-filters="sRGB">
<feFlood flood-opacity="0" result="BackgroundImageFix"/>
<feBlend mode="normal" in="SourceGraphic" in2="BackgroundImageFix" result="shape"/>
<feColorMatrix in="SourceAlpha" type="matrix" values="0 0 0 0 0 0 0 0 0 0 0 0 0 0 0 0 0 0 127 0" result="hardAlpha"/>
<feOffset dx="8" dy="4"/>
<feComposite in2="hardAlpha" operator="arithmetic" k2="-1" k3="1"/>
<feColorMatrix type="matrix" values="0 0 0 0 1 0 0 0 0 1 0 0 0 0 1 0 0 0 0.25 0"/>
<feBlend mode="normal" in2="shape" result="effect1_innerShadow_2724_2184"/>
<feColorMatrix in="SourceAlpha" type="matrix" values="0 0 0 0 0 0 0 0 0 0 0 0 0 0 0 0 0 0 127 0" result="hardAlpha"/>
<feOffset dy="-6"/>
<feComposite in2="hardAlpha" operator="arithmetic" k2="-1" k3="1"/>
<feColorMatrix type="matrix" values="0 0 0 0 0 0 0 0 0 0 0 0 0 0 0 0 0 0 0.25 0"/>
<feBlend mode="normal" in2="effect1_innerShadow_2724_2184" result="effect2_innerShadow_2724_2184"/>
</filter>
<filter id="filter3_i_2724_2184" x="188.058" y="14.3363" width="34.0179" height="27.5657" filterUnits="userSpaceOnUse" color-interpolation-filters="sRGB">
<feFlood flood-opacity="0" result="BackgroundImageFix"/>
<feBlend mode="normal" in="SourceGraphic" in2="BackgroundImageFix" result="shape"/>
<feColorMatrix in="SourceAlpha" type="matrix" values="0 0 0 0 0 0 0 0 0 0 0 0 0 0 0 0 0 0 127 0" result="hardAlpha"/>
<feOffset dx="4" dy="4"/>
<feComposite in2="hardAlpha" operator="arithmetic" k2="-1" k3="1"/>
<feColorMatrix type="matrix" values="0 0 0 0 1 0 0 0 0 1 0 0 0 0 1 0 0 0 0.25 0"/>
<feBlend mode="normal" in2="shape" result="effect1_innerShadow_2724_2184"/>
</filter>
<filter id="filter4_ii_2724_2184" x="3.69934" y="50.228" width="93.7377" height="31.7937" filterUnits="userSpaceOnUse" color-interpolation-filters="sRGB">
<feFlood flood-opacity="0" result="BackgroundImageFix"/>
<feBlend mode="normal" in="SourceGraphic" in2="BackgroundImageFix" result="shape"/>
<feColorMatrix in="SourceAlpha" type="matrix" values="0 0 0 0 0 0 0 0 0 0 0 0 0 0 0 0 0 0 127 0" result="hardAlpha"/>
<feOffset dx="8" dy="4"/>
<feComposite in2="hardAlpha" operator="arithmetic" k2="-1" k3="1"/>
<feColorMatrix type="matrix" values="0 0 0 0 1 0 0 0 0 1 0 0 0 0 1 0 0 0 0.25 0"/>
<feBlend mode="normal" in2="shape" result="effect1_innerShadow_2724_2184"/>
<feColorMatrix in="SourceAlpha" type="matrix" values="0 0 0 0 0 0 0 0 0 0 0 0 0 0 0 0 0 0 127 0" result="hardAlpha"/>
<feOffset dy="-6"/>
<feComposite in2="hardAlpha" operator="arithmetic" k2="-1" k3="1"/>
<feColorMatrix type="matrix" values="0 0 0 0 0 0 0 0 0 0 0 0 0 0 0 0 0 0 0.25 0"/>
<feBlend mode="normal" in2="effect1_innerShadow_2724_2184" result="effect2_innerShadow_2724_2184"/>
</filter>
<filter id="filter5_i_2724_2184" x="33.7263" y="38.4491" width="33.991" height="27.4872" filterUnits="userSpaceOnUse" color-interpolation-filters="sRGB">
<feFlood flood-opacity="0" result="BackgroundImageFix"/>
<feBlend mode="normal" in="SourceGraphic" in2="BackgroundImageFix" result="shape"/>
<feColorMatrix in="SourceAlpha" type="matrix" values="0 0 0 0 0 0 0 0 0 0 0 0 0 0 0 0 0 0 127 0" result="hardAlpha"/>
<feOffset dx="4" dy="4"/>
<feComposite in2="hardAlpha" operator="arithmetic" k2="-1" k3="1"/>
<feColorMatrix type="matrix" values="0 0 0 0 1 0 0 0 0 1 0 0 0 0 1 0 0 0 0.25 0"/>
<feBlend mode="normal" in2="shape" result="effect1_innerShadow_2724_2184"/>
</filter>
<filter id="filter6_ii_2724_2184" x="79.2434" y="113.743" width="93.6245" height="32.1274" filterUnits="userSpaceOnUse" color-interpolation-filters="sRGB">
<feFlood flood-opacity="0" result="BackgroundImageFix"/>
<feBlend mode="normal" in="SourceGraphic" in2="BackgroundImageFix" result="shape"/>
<feColorMatrix in="SourceAlpha" type="matrix" values="0 0 0 0 0 0 0 0 0 0 0 0 0 0 0 0 0 0 127 0" result="hardAlpha"/>
<feOffset dx="8" dy="4"/>
<feComposite in2="hardAlpha" operator="arithmetic" k2="-1" k3="1"/>
<feColorMatrix type="matrix" values="0 0 0 0 1 0 0 0 0 1 0 0 0 0 1 0 0 0 0.25 0"/>
<feBlend mode="normal" in2="shape" result="effect1_innerShadow_2724_2184"/>
<feColorMatrix in="SourceAlpha" type="matrix" values="0 0 0 0 0 0 0 0 0 0 0 0 0 0 0 0 0 0 127 0" result="hardAlpha"/>
<feOffset dy="-6"/>
<feComposite in2="hardAlpha" operator="arithmetic" k2="-1" k3="1"/>
<feColorMatrix type="matrix" values="0 0 0 0 0 0 0 0 0 0 0 0 0 0 0 0 0 0 0.25 0"/>
<feBlend mode="normal" in2="effect1_innerShadow_2724_2184" result="effect2_innerShadow_2724_2184"/>
</filter>
<filter id="filter7_i_2724_2184" x="109.048" y="102.13" width="33.9865" height="27.5854" filterUnits="userSpaceOnUse" color-interpolation-filters="sRGB">
<feFlood flood-opacity="0" result="BackgroundImageFix"/>
<feBlend mode="normal" in="SourceGraphic" in2="BackgroundImageFix" result="shape"/>
<feColorMatrix in="SourceAlpha" type="matrix" values="0 0 0 0 0 0 0 0 0 0 0 0 0 0 0 0 0 0 127 0" result="hardAlpha"/>
<feOffset dx="4" dy="4"/>
<feComposite in2="hardAlpha" operator="arithmetic" k2="-1" k3="1"/>
<feColorMatrix type="matrix" values="0 0 0 0 1 0 0 0 0 1 0 0 0 0 1 0 0 0 0.25 0"/>
<feBlend mode="normal" in2="shape" result="effect1_innerShadow_2724_2184"/>
</filter>
</defs>
</svg>
