<svg width="319" height="278" viewBox="0 0 319 278" fill="none" xmlns="http://www.w3.org/2000/svg">
<path d="M265.116 50.2303L283.218 24.4562L289.734 29.8361L267.369 52.09L265.116 50.2303ZM256.264 56.8555L261.312 50.7418L267.506 55.856L262.458 61.9697L256.264 56.8555Z" fill="white"/>
<path d="M243.194 35.8821L245.638 29.6133C247.539 29.048 249.343 28.2962 251.053 27.3579C252.762 26.4197 254.261 25.3057 255.547 24.016C256.847 22.6939 257.825 21.1905 258.482 19.5059C258.949 18.3072 259.057 17.3603 258.806 16.665C258.599 15.9501 258.075 15.4283 257.233 15.0998C256.455 14.7966 255.751 14.7834 255.121 15.06C254.523 15.3493 254.066 15.899 253.75 16.7089C253.548 17.2272 253.413 17.7159 253.346 18.175C253.324 18.6143 253.306 19.0923 253.291 19.609L245.503 18.4755C245.547 17.5969 245.627 16.7696 245.743 15.9937C245.904 15.1981 246.143 14.3953 246.458 13.5854C247.57 10.7345 249.294 8.85011 251.63 7.93227C254.011 6.99467 256.822 7.15756 260.061 8.42095C263.333 9.69697 265.509 11.5346 266.589 13.9339C267.701 16.3457 267.638 19.1391 266.4 22.314C265.642 24.2578 264.598 25.978 263.268 27.4748C261.938 28.9715 260.338 30.2511 258.468 31.3134C256.63 32.3883 254.555 33.2587 252.243 33.9245L250.386 38.6868L243.194 35.8821ZM238.914 46.138L241.852 38.6058L249.578 41.619L246.641 49.1512L238.914 46.138Z" fill="white"/>
<circle cx="132.436" cy="144.661" r="129.176" stroke="white" stroke-width="6.51992" stroke-linejoin="round" stroke-dasharray="26.08 26.08"/>
</svg>
