<svg width="1041" height="311" viewBox="0 0 1041 311" fill="none" xmlns="http://www.w3.org/2000/svg">
<path d="M735 228.765L733.108 228.117L735 228.765ZM582.5 228.765L584.472 228.432L582.5 228.765ZM780.5 208.765L779.152 210.243L780.5 208.765ZM1013.34 50.9508C1012.34 50.486 1011.15 50.9216 1010.69 51.9237L1003.11 68.2531C1002.65 69.2551 1003.08 70.4442 1004.09 70.9089C1005.09 71.3736 1006.28 70.938 1006.74 69.936L1013.47 55.421L1027.99 62.1526C1028.99 62.6173 1030.18 62.1817 1030.64 61.1796C1031.11 60.1776 1030.67 58.9885 1029.67 58.5238L1013.34 50.9508ZM10.1063 53.7597C10.786 54.6304 12.0428 54.7852 12.9135 54.1054C13.7841 53.4257 13.9389 52.1689 13.2592 51.2982L10.1063 53.7597ZM23.7495 63.9363C23.0197 63.1072 21.7559 63.0267 20.9268 63.7565C20.0976 64.4863 20.0171 65.75 20.7469 66.5792L23.7495 63.9363ZM43.9671 90.2597C44.7805 91.0071 46.0457 90.9535 46.793 90.1401C47.5403 89.3268 47.4868 88.0616 46.6734 87.3142L43.9671 90.2597ZM59.0287 98.1038C58.1788 97.3984 56.9179 97.5155 56.2124 98.3654C55.507 99.2154 55.6241 100.476 56.4741 101.182L59.0287 98.1038ZM83.0555 121.101C83.9712 121.719 85.2143 121.478 85.8321 120.562C86.4499 119.646 86.2084 118.403 85.2928 117.785L83.0555 121.101ZM99.1186 126.623C98.1734 126.051 96.9438 126.354 96.3722 127.299C95.8006 128.244 96.1035 129.474 97.0487 130.046L99.1186 126.623ZM126.254 145.769C127.252 146.243 128.445 145.819 128.919 144.821C129.393 143.823 128.969 142.63 127.971 142.156L126.254 145.769ZM142.952 148.813C141.931 148.39 140.761 148.875 140.338 149.895C139.916 150.916 140.4 152.086 141.421 152.508L142.952 148.813ZM172.699 163.616C173.758 163.931 174.872 163.329 175.187 162.27C175.503 161.212 174.9 160.098 173.841 159.783L172.699 163.616ZM189.675 164.057C188.601 163.797 187.52 164.456 187.26 165.53C187 166.603 187.659 167.684 188.733 167.944L189.675 164.057ZM221.346 174.08C222.44 174.228 223.448 173.46 223.596 172.366C223.743 171.271 222.976 170.264 221.881 170.116L221.346 174.08ZM238.16 171.893C237.059 171.801 236.093 172.619 236.001 173.72C235.909 174.821 236.727 175.787 237.827 175.879L238.16 171.893ZM270.96 176.977C272.064 176.959 272.945 176.049 272.927 174.945C272.908 173.84 271.998 172.96 270.894 172.978L270.96 176.977ZM287.281 172.312C286.178 172.383 285.343 173.334 285.414 174.437C285.485 175.539 286.437 176.375 287.539 176.303L287.281 172.312ZM320.568 172.61C321.659 172.437 322.403 171.413 322.23 170.322C322.058 169.231 321.033 168.487 319.942 168.659L320.568 172.61ZM336.027 165.75C334.945 165.97 334.246 167.026 334.466 168.108C334.686 169.19 335.742 169.89 336.824 169.669L336.027 165.75ZM369.01 161.714C370.071 161.406 370.681 160.296 370.373 159.236C370.064 158.175 368.955 157.565 367.894 157.873L369.01 161.714ZM383.609 152.973C382.561 153.322 381.994 154.455 382.343 155.503C382.692 156.551 383.824 157.118 384.872 156.769L383.609 152.973ZM415.844 145.194C416.864 144.772 417.349 143.602 416.926 142.581C416.503 141.561 415.333 141.076 414.313 141.499L415.844 145.194ZM429.446 134.93C428.441 135.386 427.995 136.572 428.452 137.578C428.908 138.583 430.094 139.029 431.099 138.572L429.446 134.93ZM460.773 123.972C461.749 123.455 462.12 122.245 461.603 121.269C461.086 120.293 459.875 119.921 458.899 120.438L460.773 123.972ZM473.288 112.546C472.327 113.091 471.99 114.311 472.535 115.272C473.08 116.233 474.3 116.57 475.261 116.026L473.288 112.546ZM503.659 98.9065C504.59 98.3119 504.863 97.0753 504.268 96.1444C503.674 95.2135 502.437 94.9408 501.506 95.5353L503.659 98.9065ZM515.159 86.5804C514.243 87.1972 514 88.44 514.617 89.3563C515.234 90.2727 516.476 90.5155 517.393 89.8987L515.159 86.5804ZM545.154 70.6745C546.066 70.0525 546.302 68.8083 545.68 67.8955C545.058 66.9827 543.814 66.7468 542.901 67.3688L545.154 70.6745ZM556.716 58.1483C555.791 58.7523 555.531 59.9916 556.135 60.9164C556.739 61.8412 557.979 62.1013 558.904 61.4973L556.716 58.1483ZM587.403 43.8204C588.357 43.2628 588.677 42.0377 588.12 41.0843C587.562 40.1309 586.337 39.81 585.383 40.3677L587.403 43.8204ZM599.855 32.1918C598.884 32.7198 598.526 33.9343 599.054 34.9045C599.582 35.8747 600.796 36.2332 601.767 35.7052L599.855 32.1918ZM631.747 20.883C632.758 20.4386 633.218 19.2586 632.774 18.2474C632.329 17.2361 631.149 16.7765 630.138 17.2209L631.747 20.883ZM645.773 10.8716C644.738 11.2555 644.209 12.4064 644.593 13.4421C644.977 14.4778 646.128 15.0061 647.164 14.6221L645.773 10.8716ZM678.956 5.70715C680.044 5.51727 680.773 4.48123 680.583 3.39311C680.393 2.30498 679.357 1.57682 678.269 1.7667L678.956 5.70715ZM695.05 0.0289197C693.946 0.0562891 693.073 0.973632 693.101 2.07786C693.128 3.18209 694.045 4.05506 695.149 4.02769L695.05 0.0289197ZM726.651 10.5609C727.627 11.0785 728.838 10.7071 729.355 9.73136C729.873 8.75559 729.502 7.54494 728.526 7.0273L726.651 10.5609ZM742.278 17.5358C741.52 16.7319 740.255 16.6944 739.451 17.4519C738.647 18.2095 738.609 19.4752 739.367 20.2791L742.278 17.5358ZM754.606 48.6637C754.914 49.7243 756.024 50.3339 757.085 50.0253C758.145 49.7167 758.755 48.6067 758.446 47.5461L754.606 48.6637ZM762.004 64.2072C761.844 63.1143 760.828 62.3582 759.735 62.5183C758.642 62.6784 757.886 63.6942 758.046 64.7871L762.004 64.2072ZM759.714 97.8938C759.682 98.998 760.552 99.9184 761.656 99.9498C762.76 99.9811 763.681 99.1114 763.712 98.0073L759.714 97.8938ZM762.724 114.807C762.82 113.707 762.006 112.737 760.905 112.641C759.805 112.545 758.835 113.359 758.739 114.46L762.724 114.807ZM754.286 147.491C754.092 148.579 754.817 149.617 755.904 149.811C756.992 150.004 758.03 149.279 758.224 148.192L754.286 147.491ZM754.976 164.705C755.208 163.625 754.521 162.562 753.441 162.33C752.361 162.098 751.298 162.785 751.066 163.865L754.976 164.705ZM743.023 196.27C742.725 197.334 743.345 198.438 744.409 198.736C745.472 199.034 746.576 198.414 746.874 197.35L743.023 196.27ZM742.105 213.469C742.434 212.414 741.845 211.293 740.79 210.964C739.736 210.636 738.614 211.225 738.286 212.279L742.105 213.469ZM727.109 242.485C726.62 243.476 727.027 244.675 728.018 245.163C729.009 245.652 730.208 245.245 730.696 244.254L727.109 242.485ZM722.754 258.219C723.354 257.292 723.09 256.054 722.163 255.453C721.236 254.853 719.997 255.118 719.397 256.045L722.754 258.219ZM699.604 280.114C698.809 280.88 698.785 282.146 699.551 282.942C700.317 283.738 701.583 283.762 702.379 282.995L699.604 280.114ZM690.105 293.398C690.993 292.741 691.181 291.489 690.525 290.601C689.868 289.713 688.616 289.525 687.727 290.181L690.105 293.398ZM660.305 304.225C659.243 304.53 658.629 305.637 658.933 306.699C659.238 307.761 660.345 308.375 661.407 308.07L660.305 304.225ZM645.281 310.531C646.385 310.519 647.27 309.613 647.257 308.508C647.245 307.404 646.339 306.519 645.234 306.532L645.281 310.531ZM616.995 297.167C616.117 296.497 614.862 296.665 614.192 297.543C613.521 298.421 613.69 299.676 614.568 300.346L616.995 297.167ZM603.102 288.765C603.776 289.641 605.031 289.805 605.907 289.131C606.782 288.458 606.946 287.202 606.273 286.327L603.102 288.765ZM592.067 258.875C591.702 257.833 590.561 257.284 589.518 257.649C588.476 258.015 587.927 259.156 588.292 260.198L592.067 258.875ZM583.768 244.854C584.031 245.927 585.115 246.583 586.187 246.319C587.26 246.055 587.916 244.972 587.652 243.899L583.768 244.854ZM582.7 213.543C582.63 212.441 581.68 211.604 580.578 211.674C579.476 211.744 578.638 212.694 578.708 213.796L582.7 213.543ZM578.802 198.472C578.709 199.572 579.525 200.54 580.626 200.634C581.726 200.727 582.694 199.911 582.788 198.81L578.802 198.472ZM591.777 171.485C592.412 170.581 592.194 169.334 591.29 168.699C590.386 168.064 589.139 168.282 588.504 169.186L591.777 171.485ZM599.636 158.133C598.729 158.763 598.503 160.009 599.133 160.917C599.763 161.824 601.009 162.05 601.916 161.42L599.636 158.133ZM629.264 152.254C630.363 152.144 631.164 151.163 631.054 150.064C630.944 148.965 629.964 148.163 628.865 148.274L629.264 152.254ZM644.242 147.926C643.138 147.875 642.202 148.728 642.151 149.831C642.1 150.935 642.953 151.871 644.056 151.922L644.242 147.926ZM673.466 156.337C674.54 156.595 675.62 155.933 675.877 154.858C676.135 153.784 675.473 152.705 674.399 152.447L673.466 156.337ZM689.082 156.514C688.028 156.185 686.906 156.772 686.576 157.826C686.247 158.88 686.834 160.002 687.888 160.332L689.082 156.514ZM715.904 170.909C716.914 171.354 718.095 170.896 718.541 169.886C718.986 168.875 718.528 167.694 717.518 167.249L715.904 170.909ZM731.25 173.734C730.264 173.237 729.061 173.633 728.564 174.619C728.067 175.606 728.463 176.808 729.449 177.306L731.25 173.734ZM755.443 192.207C756.368 192.81 757.608 192.548 758.211 191.623C758.814 190.698 758.552 189.459 757.627 188.856L755.443 192.207ZM770.08 197.572C769.198 196.906 767.944 197.082 767.278 197.963C766.613 198.845 766.788 200.099 767.67 200.765L770.08 197.572ZM792.44 220.886C793.338 221.529 794.587 221.322 795.23 220.424C795.873 219.525 795.666 218.276 794.768 217.633L792.44 220.886ZM808.764 226.789C807.817 226.22 806.588 226.525 806.019 227.472C805.449 228.418 805.755 229.647 806.702 230.217L808.764 226.789ZM836.885 245.924C837.892 246.377 839.076 245.929 839.529 244.922C839.983 243.914 839.534 242.73 838.527 242.277L836.885 245.924ZM853.976 248.752C852.946 248.352 851.787 248.862 851.387 249.891C850.987 250.921 851.497 252.08 852.526 252.48L853.976 248.752ZM884.802 263.086C885.868 263.372 886.965 262.739 887.252 261.673C887.538 260.606 886.905 259.509 885.839 259.222L884.802 263.086ZM902.144 263.078C901.062 262.858 900.006 263.556 899.786 264.639C899.565 265.721 900.264 266.777 901.346 266.998L902.144 263.078ZM935.117 271.37C936.221 271.423 937.158 270.571 937.211 269.468C937.264 268.365 936.413 267.427 935.309 267.374L935.117 271.37ZM951.942 267.361C950.839 267.42 949.993 268.362 950.052 269.465C950.11 270.568 951.052 271.414 952.155 271.356L951.942 267.361ZM985.799 264.999C986.839 264.628 987.381 263.484 987.01 262.443C986.638 261.403 985.494 260.861 984.454 261.232L985.799 264.999ZM999.327 254.222C998.382 254.794 998.08 256.024 998.652 256.969C999.224 257.914 1000.45 258.216 1001.4 257.644L999.327 254.222ZM1025.88 233.611C1026.47 232.676 1026.19 231.441 1025.26 230.853C1024.32 230.264 1023.09 230.545 1022.5 231.479L1025.88 233.611ZM1029.74 216.736C1029.35 217.771 1029.88 218.923 1030.91 219.31C1031.95 219.697 1033.1 219.171 1033.49 218.137L1029.74 216.736ZM1040.31 184.528C1040.39 183.426 1039.56 182.473 1038.45 182.398C1037.35 182.323 1036.4 183.156 1036.32 184.258L1040.31 184.528ZM1036.6 167.573C1036.64 168.677 1037.56 169.545 1038.66 169.512C1039.77 169.479 1040.63 168.557 1040.6 167.453L1036.6 167.573ZM1037.12 133.831C1036.93 132.742 1035.9 132.007 1034.81 132.191C1033.72 132.374 1032.99 133.406 1033.17 134.495L1037.12 133.831ZM1029.98 118.106C1030.21 119.185 1031.28 119.867 1032.36 119.629C1033.44 119.391 1034.12 118.324 1033.88 117.246L1029.98 118.106ZM1025.22 84.3678C1024.9 83.3107 1023.78 82.7133 1022.73 83.0335C1021.67 83.3537 1021.07 84.4703 1021.39 85.5274L1025.22 84.3678ZM1016.31 69.6437C1016.66 70.6907 1017.8 71.2542 1018.85 70.9023C1019.89 70.5504 1020.46 69.4164 1020.1 68.3693L1016.31 69.6437ZM0.345541 40.3891C3.31615 44.7627 6.57166 49.2322 10.1063 53.7597L13.2592 51.2982C9.77706 46.8379 6.57376 42.4397 3.65446 38.1416L0.345541 40.3891ZM20.7469 66.5792C27.6896 74.4669 35.439 82.4241 43.9671 90.2597L46.6734 87.3142C38.2493 79.5743 30.5989 71.718 23.7495 63.9363L20.7469 66.5792ZM56.4741 101.182C64.7301 108.034 73.5971 114.719 83.0555 121.101L85.2928 117.785C75.947 111.48 67.1857 104.874 59.0287 98.1038L56.4741 101.182ZM97.0487 130.046C106.293 135.636 116.033 140.913 126.254 145.769L127.971 142.156C117.875 137.359 108.252 132.146 99.1186 126.623L97.0487 130.046ZM141.421 152.508C151.436 156.656 161.866 160.388 172.699 163.616L173.841 159.783C163.143 156.595 152.843 152.909 142.952 148.813L141.421 152.508ZM188.733 167.944C199.259 170.495 210.133 172.564 221.346 174.08L221.881 170.116C210.808 168.619 200.069 166.576 189.675 164.057L188.733 167.944ZM237.827 175.879C248.586 176.777 259.633 177.163 270.96 176.977L270.894 172.978C259.701 173.161 248.787 172.78 238.16 171.893L237.827 175.879ZM287.539 176.303C298.314 175.606 309.326 174.39 320.568 172.61L319.942 168.659C308.821 170.421 297.931 171.622 287.281 172.312L287.539 176.303ZM336.824 169.669C347.363 167.527 358.094 164.887 369.01 161.714L367.894 157.873C357.081 161.016 346.457 163.629 336.027 165.75L336.824 169.669ZM384.872 156.769C395.044 153.383 405.369 149.534 415.844 145.194L414.313 141.499C403.924 145.803 393.688 149.618 383.609 152.973L384.872 156.769ZM431.099 138.572C440.867 134.139 450.759 129.28 460.773 123.972L458.899 120.438C448.956 125.708 439.137 130.532 429.446 134.93L431.099 138.572ZM475.261 116.026C484.625 110.717 494.092 105.016 503.659 98.9065L501.506 95.5353C491.997 101.608 482.59 107.273 473.288 112.546L475.261 116.026ZM517.393 89.8987C521.958 86.8256 526.546 83.6593 531.155 80.398L528.845 77.1327C524.26 80.3763 519.698 83.5249 515.159 86.5804L517.393 89.8987ZM531.155 80.398C535.912 77.0326 540.577 73.7923 545.154 70.6745L542.901 67.3688C538.305 70.5004 533.62 73.7542 528.845 77.1327L531.155 80.398ZM558.904 61.4973C568.849 55.0019 578.343 49.12 587.403 43.8204L585.383 40.3677C576.262 45.7035 566.711 51.6203 556.716 58.1483L558.904 61.4973ZM601.767 35.7052C612.403 29.9168 622.386 24.9961 631.747 20.883L630.138 17.2209C620.661 21.3849 610.577 26.3566 599.855 32.1918L601.767 35.7052ZM647.164 14.6221C658.844 10.2919 669.414 7.37241 678.956 5.70715L678.269 1.7667C668.444 3.48124 657.637 6.47337 645.773 10.8716L647.164 14.6221ZM695.149 4.02769C707.832 3.71335 718.216 6.08599 726.651 10.5609L728.526 7.0273C719.381 2.17596 708.293 -0.299321 695.05 0.0289197L695.149 4.02769ZM739.367 20.2791C746.31 27.6471 751.295 37.2875 754.606 48.6637L758.446 47.5461C755.009 35.7338 749.764 25.4791 742.278 17.5358L739.367 20.2791ZM758.046 64.7871C759.548 75.0337 760.046 86.1771 759.714 97.8938L763.712 98.0073C764.05 86.1133 763.546 74.7317 762.004 64.2072L758.046 64.7871ZM758.739 114.46C757.799 125.234 756.272 136.322 754.286 147.491L758.224 148.192C760.228 136.923 761.772 125.717 762.724 114.807L758.739 114.46ZM751.066 163.865C748.722 174.774 746.002 185.647 743.023 196.27L746.874 197.35C749.873 186.655 752.614 175.701 754.976 164.705L751.066 163.865ZM738.286 212.279C736.608 217.668 734.876 222.958 733.108 228.117L736.892 229.414C738.672 224.219 740.416 218.894 742.105 213.469L738.286 212.279ZM733.108 228.117C731.442 232.978 729.427 237.786 727.109 242.485L730.696 244.254C733.086 239.41 735.167 234.445 736.892 229.414L733.108 228.117ZM719.397 256.045C713.68 264.87 706.956 273.035 699.604 280.114L702.379 282.995C709.956 275.7 716.874 267.297 722.754 258.219L719.397 256.045ZM687.727 290.181C678.907 296.701 669.59 301.563 660.305 304.225L661.407 308.07C671.238 305.252 680.98 300.143 690.105 293.398L687.727 290.181ZM645.234 306.532C635.282 306.648 625.662 303.786 616.995 297.167L614.568 300.346C623.979 307.534 634.48 310.657 645.281 310.531L645.234 306.532ZM606.273 286.327C600.879 279.313 596.058 270.263 592.067 258.875L588.292 260.198C592.394 271.903 597.4 281.35 603.102 288.765L606.273 286.327ZM587.652 243.899C586.464 239.068 585.4 233.916 584.472 228.432L580.528 229.099C581.471 234.673 582.555 239.921 583.768 244.854L587.652 243.899ZM584.472 228.432C583.578 223.148 582.995 218.19 582.7 213.543L578.708 213.796C579.012 218.596 579.613 223.692 580.528 229.099L584.472 228.432ZM582.788 198.81C583.763 187.319 586.953 178.351 591.777 171.485L588.504 169.186C583.198 176.738 579.825 186.419 578.802 198.472L582.788 198.81ZM601.916 161.42C609.365 156.251 618.675 153.314 629.264 152.254L628.865 148.274C617.801 149.381 607.788 152.477 599.636 158.133L601.916 161.42ZM644.056 151.922C653.396 152.355 663.319 153.904 673.466 156.337L674.399 152.447C664.059 149.968 653.882 148.374 644.242 147.926L644.056 151.922ZM687.888 160.332C697.298 163.275 706.731 166.863 715.904 170.909L717.518 167.249C708.22 163.148 698.647 159.506 689.082 156.514L687.888 160.332ZM729.449 177.306C738.671 181.955 747.443 186.994 755.443 192.207L757.627 188.856C749.497 183.558 740.596 178.446 731.25 173.734L729.449 177.306ZM767.67 200.765C771.857 203.924 775.706 207.098 779.152 210.243L781.848 207.288C778.298 204.049 774.352 200.796 770.08 197.572L767.67 200.765ZM779.152 210.243C783.013 213.765 787.476 217.335 792.44 220.886L794.768 217.633C789.909 214.157 785.573 210.686 781.848 207.288L779.152 210.243ZM806.702 230.217C815.828 235.706 826.014 241.028 836.885 245.924L838.527 242.277C827.79 237.44 817.745 232.191 808.764 226.789L806.702 230.217ZM852.526 252.48C862.948 256.532 873.801 260.133 884.802 263.086L885.839 259.222C874.986 256.309 864.271 252.754 853.976 248.752L852.526 252.48ZM901.346 266.998C912.688 269.308 924.048 270.838 935.117 271.37L935.309 267.374C924.472 266.854 913.317 265.354 902.144 263.078L901.346 266.998ZM952.155 271.356C964.046 270.722 975.408 268.71 985.799 264.999L984.454 261.232C974.496 264.788 963.527 266.744 951.942 267.361L952.155 271.356ZM1001.4 257.644C1011.08 251.778 1019.42 243.876 1025.88 233.611L1022.5 231.479C1016.38 241.196 1008.5 248.665 999.327 254.222L1001.4 257.644ZM1033.49 218.137C1037.1 208.458 1039.45 197.302 1040.31 184.528L1036.32 184.258C1035.48 196.704 1033.2 207.472 1029.74 216.736L1033.49 218.137ZM1040.6 167.453C1040.29 157.158 1039.16 145.97 1037.12 133.831L1033.17 134.495C1035.19 146.478 1036.3 157.483 1036.6 167.573L1040.6 167.453ZM1033.88 117.246C1031.61 106.918 1028.74 95.9682 1025.22 84.3678L1021.39 85.5274C1024.88 97.0389 1027.73 107.888 1029.98 118.106L1033.88 117.246ZM1020.1 68.3693C1018.32 63.0655 1016.41 57.6356 1014.38 52.0772L1010.62 53.4531C1012.65 58.9792 1014.54 64.3753 1016.31 69.6437L1020.1 68.3693Z" fill="white"/>
</svg>
