<svg width="16" height="16" viewBox="0 0 16 16" fill="none" xmlns="http://www.w3.org/2000/svg">
<g clip-path="url(#clip0_2531_4651)">
<path d="M7.99301 1.33331C4.31301 1.33331 1.33301 4.31998 1.33301 7.99998C1.33301 11.68 4.31301 14.6666 7.99301 14.6666C11.6797 14.6666 14.6663 11.68 14.6663 7.99998C14.6663 4.31998 11.6797 1.33331 7.99301 1.33331ZM7.99967 13.3333C5.05301 13.3333 2.66634 10.9466 2.66634 7.99998C2.66634 5.05331 5.05301 2.66665 7.99967 2.66665C10.9463 2.66665 13.333 5.05331 13.333 7.99998C13.333 10.9466 10.9463 13.3333 7.99967 13.3333Z" fill="white"/>
<path d="M8.33301 4.66669H7.33301V8.66669L10.833 10.7667L11.333 9.94669L8.33301 8.16669V4.66669Z" fill="white"/>
</g>
<defs>
<clipPath id="clip0_2531_4651">
<rect width="16" height="16" fill="white"/>
</clipPath>
</defs>
</svg>
