<svg width="32" height="33" viewBox="0 0 32 33" fill="none" xmlns="http://www.w3.org/2000/svg">
<path d="M0 2.3621C0 1.0626 1.05345 0.00915527 2.35294 0.00915527H29.6471C30.9466 0.00915527 32 1.0626 32 2.3621C32 3.66159 30.9466 4.71504 29.6471 4.71504H2.35294C1.05345 4.71504 0 3.66159 0 2.3621Z" fill="#080736"/>
<path d="M0 16.4797C0 15.1803 1.05345 14.1268 2.35294 14.1268H29.6471C30.9466 14.1268 32 15.1803 32 16.4797C32 17.7792 30.9466 18.8327 29.6471 18.8327H2.35294C1.05345 18.8327 0 17.7792 0 16.4797Z" fill="#080736"/>
<path d="M0 29.6562C0 28.3567 1.05345 27.3033 2.35294 27.3033H29.6471C30.9466 27.3033 32 28.3567 32 29.6562C32 30.9557 30.9466 32.0092 29.6471 32.0092H2.35294C1.05345 32.0092 0 30.9557 0 29.6562Z" fill="#080736"/>
</svg>
