<svg width="17" height="16" viewBox="0 0 17 16" fill="none" xmlns="http://www.w3.org/2000/svg">
<rect width="17" height="16" fill="#3A3A3A"/>
<g id="Components">
<path d="M-878 -2626C-878 -2627.1 -877.105 -2628 -876 -2628H1478C1479.1 -2628 1480 -2627.1 1480 -2626V4801C1480 4802.1 1479.1 4803 1478 4803H-876C-877.105 4803 -878 4802.1 -878 4801V-2626Z" fill="#404040"/>
<g id="SpeakerPicker">
<g id="Frame 316">
<g id="Frame 24">
<rect x="-761.5" y="-15.5" width="828" height="47" rx="7.5" fill="white"/>
<g id="Frame 260">
<g id="Frame 176">
<rect x="-157.5" y="-7" width="184" height="30" rx="15" fill="#4340BE"/>
<g id="Content copy" clip-path="url(#clip0_0_1)">
<path id="Vector" d="M11.1663 0.666626H3.16634C2.43301 0.666626 1.83301 1.26663 1.83301 1.99996V11.3333H3.16634V1.99996H11.1663V0.666626ZM13.1663 3.33329H5.83301C5.09967 3.33329 4.49967 3.93329 4.49967 4.66663V14C4.49967 14.7333 5.09967 15.3333 5.83301 15.3333H13.1663C13.8997 15.3333 14.4997 14.7333 14.4997 14V4.66663C14.4997 3.93329 13.8997 3.33329 13.1663 3.33329ZM13.1663 14H5.83301V4.66663H13.1663V14Z" fill="white"/>
</g>
<rect x="-157.5" y="-7" width="184" height="30" rx="15" stroke="#DBDBDB"/>
</g>
</g>
<rect x="-761.5" y="-15.5" width="828" height="47" rx="7.5" stroke="#DBDBDB"/>
</g>
</g>
</g>
<path d="M-876 -2627H1478V-2629H-876V-2627ZM1479 -2626V4801H1481V-2626H1479ZM1478 4802H-876V4804H1478V4802ZM-877 4801V-2626H-879V4801H-877ZM-876 4802C-876.552 4802 -877 4801.55 -877 4801H-879C-879 4802.66 -877.657 4804 -876 4804V4802ZM1479 4801C1479 4801.55 1478.55 4802 1478 4802V4804C1479.66 4804 1481 4802.66 1481 4801H1479ZM1478 -2627C1478.55 -2627 1479 -2626.55 1479 -2626H1481C1481 -2627.66 1479.66 -2629 1478 -2629V-2627ZM-876 -2629C-877.657 -2629 -879 -2627.66 -879 -2626H-877C-877 -2626.55 -876.552 -2627 -876 -2627V-2629Z" fill="black" fill-opacity="0.1"/>
</g>
<defs>
<clipPath id="clip0_0_1">
<rect width="16" height="16" fill="white" transform="translate(0.5)"/>
</clipPath>
</defs>
</svg>
