<svg width="16" height="16" viewBox="0 0 16 16" fill="none" xmlns="http://www.w3.org/2000/svg">
<g id="Components">
<g id="Content copy" clip-path="url(#clip0_0_1)">
<path id="Vector" d="M10.6663 0.666626H2.66634C1.93301 0.666626 1.33301 1.26663 1.33301 1.99996V11.3333H2.66634V1.99996H10.6663V0.666626ZM12.6663 3.33329H5.33301C4.59967 3.33329 3.99967 3.93329 3.99967 4.66663V14C3.99967 14.7333 4.59967 15.3333 5.33301 15.3333H12.6663C13.3997 15.3333 13.9997 14.7333 13.9997 14V4.66663C13.9997 3.93329 13.3997 3.33329 12.6663 3.33329ZM12.6663 14H5.33301V4.66663H12.6663V14Z" fill="white"/>
</g>
<path d="M-1101 -2598H1253V-2600H-1101V-2598ZM1254 -2597V4830H1256V-2597H1254ZM1253 4831H-1101V4833H1253V4831ZM-1102 4830V-2597H-1104V4830H-1102ZM-1101 4831C-1101.55 4831 -1102 4830.55 -1102 4830H-1104C-1104 4831.66 -1102.66 4833 -1101 4833V4831ZM1254 4830C1254 4830.55 1253.55 4831 1253 4831V4833C1254.66 4833 1256 4831.66 1256 4830H1254ZM1253 -2598C1253.55 -2598 1254 -2597.55 1254 -2597H1256C1256 -2598.66 1254.66 -2600 1253 -2600V-2598ZM-1101 -2600C-1102.66 -2600 -1104 -2598.66 -1104 -2597H-1102C-1102 -2597.55 -1101.55 -2598 -1101 -2598V-2600Z" fill="black" fill-opacity="0.1"/>
</g>
<defs>
<clipPath id="clip0_0_1">
<rect width="16" height="16" fill="white"/>
</clipPath>
</defs>
</svg>
