<svg width="64" height="64" viewBox="0 0 64 64" fill="none" xmlns="http://www.w3.org/2000/svg">
<path fill-rule="evenodd" clip-rule="evenodd" d="M31.9999 64C28.0888 60.2852 20.2666 50.6268 20.2666 41.7114C20.2666 37.9967 22.6133 30.5671 31.9999 30.5671C41.3866 30.5671 43.7333 37.9967 43.7333 41.7114C43.7333 50.6268 35.911 60.2852 31.9999 64ZM28.0888 41.7114C28.0888 38.7396 30.6962 37.9967 31.9999 37.9967C33.3036 37.9967 35.911 38.7396 35.911 41.7114C35.911 44.6832 33.3036 45.4262 31.9999 45.4262C30.6962 45.4262 28.0888 44.6832 28.0888 41.7114Z" fill="#4340BE"/>
<g filter="url(#filter0_i_3384_2488)">
<ellipse cx="32" cy="16.2388" rx="32" ry="11.4627" fill="#080736"/>
</g>
<g filter="url(#filter1_i_3384_2488)">
<path d="M44.8002 10.4766C44.8002 16.2627 39.0694 16.2388 32.0002 16.2388C24.931 16.2388 19.2002 16.2627 19.2002 10.4766C19.2002 4.69056 24.931 0 32.0002 0C39.0694 0 44.8002 4.69056 44.8002 10.4766Z" fill="#4340BE"/>
</g>
<defs>
<filter id="filter0_i_3384_2488" x="0" y="0.776123" width="66" height="26.9254" filterUnits="userSpaceOnUse" color-interpolation-filters="sRGB">
<feFlood flood-opacity="0" result="BackgroundImageFix"/>
<feBlend mode="normal" in="SourceGraphic" in2="BackgroundImageFix" result="shape"/>
<feColorMatrix in="SourceAlpha" type="matrix" values="0 0 0 0 0 0 0 0 0 0 0 0 0 0 0 0 0 0 127 0" result="hardAlpha"/>
<feMorphology radius="1" operator="erode" in="SourceAlpha" result="effect1_innerShadow_3384_2488"/>
<feOffset dx="2" dy="-4"/>
<feGaussianBlur stdDeviation="2"/>
<feComposite in2="hardAlpha" operator="arithmetic" k2="-1" k3="1"/>
<feColorMatrix type="matrix" values="0 0 0 0 0.00833333 0 0 0 0 0.7025 0 0 0 0 1 0 0 0 0.15 0"/>
<feBlend mode="normal" in2="shape" result="effect1_innerShadow_3384_2488"/>
</filter>
<filter id="filter1_i_3384_2488" x="19.2002" y="0" width="25.6001" height="16.2388" filterUnits="userSpaceOnUse" color-interpolation-filters="sRGB">
<feFlood flood-opacity="0" result="BackgroundImageFix"/>
<feBlend mode="normal" in="SourceGraphic" in2="BackgroundImageFix" result="shape"/>
<feColorMatrix in="SourceAlpha" type="matrix" values="0 0 0 0 0 0 0 0 0 0 0 0 0 0 0 0 0 0 127 0" result="hardAlpha"/>
<feOffset dx="4" dy="2"/>
<feComposite in2="hardAlpha" operator="arithmetic" k2="-1" k3="1"/>
<feColorMatrix type="matrix" values="0 0 0 0 1 0 0 0 0 1 0 0 0 0 1 0 0 0 0.05 0"/>
<feBlend mode="normal" in2="shape" result="effect1_innerShadow_3384_2488"/>
</filter>
</defs>
</svg>
