<svg width="41" height="41" viewBox="0 0 41 41" fill="none" xmlns="http://www.w3.org/2000/svg">
<path d="M20.5 40.0624C31.8218 40.0624 41 31.0941 41 20.0312C41 8.96827 31.8218 0 20.5 0C9.17816 0 0 8.96827 0 20.0312C0 31.0941 9.17816 40.0624 20.5 40.0624Z" fill="#3937B4"/>
<path d="M4.80656 7.30718C9.30988 7.25233 14.6714 6.50232 20.2407 4.27372C23.1095 3.12573 26.4316 2.50927 29.7721 2.21791C27.0148 0.814305 23.8975 0.0166497 20.5956 0.000257791C19.9831 0.196845 19.3807 0.412311 18.7911 0.648244C15.6669 1.89842 12.6107 2.63586 9.76614 3.02889C7.89182 4.18291 6.21731 5.63033 4.80656 7.30718Z" fill="#25BBB2"/>
<path d="M19.688 12.8558C23.4682 10.1054 27.1605 9.85456 30.2775 10.6968C33.4792 11.5619 36.1006 13.5953 37.4851 15.3958C38.1422 16.2505 39.3675 16.4103 40.2219 15.7528C40.2832 15.7056 40.341 15.6555 40.3952 15.6027C39.991 13.9532 39.3873 12.3821 38.6111 10.9164C36.7236 9.23067 34.2 7.71194 31.2953 6.92709C27.1264 5.80067 22.1992 6.20056 17.3923 9.69785C13.6085 12.4507 9.53021 12.8974 5.87524 12.3027C4.55778 12.0884 3.30687 11.7396 2.16394 11.3207C1.5843 12.4766 1.11073 13.6951 0.755987 14.9631C2.1384 15.4741 3.65089 15.8969 5.24861 16.1568C9.69278 16.88 14.8846 16.3505 19.688 12.8558Z" fill="#25BBB2"/>
<path d="M19.6942 23.9305C25.1586 19.9218 29.5165 19.5574 32.6681 20.4094C35.9204 21.2886 38.228 23.5542 39.3215 25.3318C39.5399 25.6869 39.8536 25.9475 40.2094 26.1009C40.6616 24.5046 40.9253 22.829 40.975 21.0998C39.2773 19.2615 36.8211 17.4872 33.6862 16.6399C29.194 15.4255 23.6312 16.2 17.386 20.7817C11.9099 24.7992 7.13525 25.5334 3.45707 24.9885C2.31895 24.8199 1.2708 24.5266 0.325195 24.1584C0.605933 25.7174 1.06288 27.2152 1.67467 28.6303C2.06926 28.716 2.47293 28.7901 2.88534 28.8512C7.66412 29.5591 13.4606 28.5036 19.6942 23.9305Z" fill="#25BBB2"/>
<path d="M25.549 30.3925C28.2643 28.4005 30.3515 27.7843 31.901 27.817C33.4067 27.8488 34.6832 28.4992 35.8086 29.6477C36.4415 30.2937 37.0039 31.0763 37.4974 31.9417C38.3196 30.721 39.014 29.407 39.5614 28.0189C39.2578 27.6313 38.9363 27.2618 38.5962 26.9146C36.916 25.1997 34.7162 23.9709 31.9833 23.9132C29.2941 23.8563 26.3804 24.9404 23.2408 27.2436C16.1463 32.4484 10.887 33.9746 7.32228 34.1907C6.55348 34.2373 5.85362 34.2238 5.22045 34.1697C6.49582 35.5947 7.96755 36.8401 9.59308 37.8633C13.798 37.1948 19.0951 35.1272 25.549 30.3925Z" fill="#25BBB2"/>
<path d="M25.6256 38.811C27.126 37.5915 28.3368 36.7815 29.2953 36.2827C30.2737 35.7734 30.865 35.6541 31.1609 35.6515C31.2281 35.6509 31.2729 35.6563 31.2992 35.6613C31.3251 35.6661 31.3378 35.6714 31.3378 35.6714L31.3403 35.6738C31.3428 35.6761 31.3472 35.6804 31.3532 35.6871C31.4119 35.7538 31.5674 35.9987 31.6651 36.6058C31.7141 36.9102 31.741 37.2544 31.7466 37.6339C33.0072 36.8035 34.1708 35.8375 35.2166 34.7568C35.0134 34.1695 34.716 33.5983 34.2807 33.1045C33.4775 32.1933 32.3715 31.7355 31.1255 31.7468C29.9669 31.7574 28.7452 32.1673 27.4939 32.8187C26.2225 33.4803 24.7864 34.462 23.1642 35.7806C20.4355 37.9985 18.2085 39.5399 16.391 40.5894C17.7159 40.8586 19.0873 41 20.4917 41C21.3475 41 22.191 40.9475 23.0193 40.8456C23.8457 40.2291 24.7135 39.5524 25.6256 38.811Z" fill="#25BBB2"/>
<path fill-rule="evenodd" clip-rule="evenodd" d="M3.99063 8.34283C4.80866 20.445 13.7975 38.2981 39.9921 26.8177C37.3297 35.0481 29.6056 41 20.4919 41C9.17452 41 0 31.8218 0 20.5C0 15.9489 1.48245 11.7442 3.99063 8.34283Z" fill="#01050C" fill-opacity="0.35"/>
</svg>
