<svg width="24" height="24" viewBox="0 0 24 24" fill="none" xmlns="http://www.w3.org/2000/svg">
<g clip-path="url(#clip0_2727_1989)">
<path d="M7.36951 14.6187C7.36951 13.3783 6.48282 12.9945 5.40617 12.9945H3.57617V18.2132H4.72951V16.332H5.35284L6.32617 18.2132H7.60951L6.46617 16.123C7.00282 15.8763 7.36951 15.3863 7.36951 14.6187ZM5.31284 15.3931H4.72951V13.93H5.31284C5.91282 13.93 6.23951 14.1047 6.23951 14.6187C6.23951 15.1293 5.91282 15.3931 5.31284 15.3931Z" fill="white"/>
<path d="M12.836 15.2732L12.1894 15.0025C11.746 14.8174 11.4127 14.7044 11.4127 14.3857C11.4127 14.0876 11.6694 13.9128 12.0594 13.9128C12.4627 13.9128 12.7827 14.0636 13.1194 14.3275L13.696 13.5839C13.2594 13.135 12.646 12.8951 12.0627 12.8951C11.0127 12.8951 10.256 13.5839 10.256 14.4474C10.256 15.2081 10.756 15.6569 11.2827 15.8728L11.936 16.1607C12.3794 16.3525 12.666 16.4553 12.666 16.7843C12.666 17.0961 12.4327 17.288 11.9594 17.288C11.5394 17.288 11.0727 17.0653 10.7127 16.7432L10.0527 17.5518C10.5727 18.0487 11.276 18.3022 11.936 18.3022C13.1427 18.3022 13.8427 17.5518 13.8427 16.6849C13.8394 15.955 13.4494 15.5302 12.836 15.2732Z" fill="white"/>
<path d="M16.6406 13.9882H18.0406V18.2132H19.1839V13.9882H20.5806V12.9945H16.6406V13.9882Z" fill="white"/>
<path d="M2 19.6385H22V4.12305H2V19.6385ZM15.4733 4.49997H21.6333V19.2582H15.4733V4.49997ZM8.94 4.49997H15.1033V19.2582H8.94V4.49997ZM2.37 4.49997H8.57335V19.2582H2.37V4.49997Z" fill="white"/>
</g>
<defs>
<clipPath id="clip0_2727_1989">
<rect width="20" height="16" fill="white" transform="translate(2 4)"/>
</clipPath>
</defs>
</svg>
