<svg width="64" height="65" viewBox="0 0 64 65" fill="none" xmlns="http://www.w3.org/2000/svg">
<g filter="url(#filter0_d_3588_5225)">
<path d="M64 32C64 38.0362 62.4762 44 58.9206 47.5C57.3975 49.9865 55.971 53.2526 53.8413 55.238C48.0156 60.669 40.149 64 31.4921 64C26.79 64 19.2734 62.7682 15.2381 61C10.1992 58.7921 8.884 55.6087 5.5873 51.3355C1.44346 45.9642 1.52381 44.5 0 32C0 26.1714 0.56717 20.7068 3.33311 16C4.57143 10.5 8.63492 6.98148 12.1905 5.5C17.7558 1.10836 23.8044 0 31.4921 0C39.1111 0.5 42.3436 2.59493 47.2381 5.5C53.8413 7.5 57.9733 12.4272 60.732 18C62.8254 22.2288 61.9683 21 64 32Z" fill="#EBB769"/>
<path d="M64 32C64 38.0362 62.4762 44 58.9206 47.5C57.3975 49.9865 55.971 53.2526 53.8413 55.238C48.0156 60.669 40.149 64 31.4921 64C26.79 64 19.2734 62.7682 15.2381 61C10.1992 58.7921 8.884 55.6087 5.5873 51.3355C12.1912 53.5 8.63492 54.5 12.1905 55.5C14.7302 59.5 20.8254 62.238 26.4127 61C27.651 55.5 33.5238 61.4815 37.0794 60C42.6447 55.6084 44.1905 60 48.254 53C55.873 53.5 48.254 48.5 56.381 40.5C64 37 57.9048 30 60.732 18C62.8254 22.2288 61.9683 21 64 32Z" fill="black" fill-opacity="0.14"/>
<path d="M22.3492 54C22.3492 55.1046 21.7732 55.5 19.8095 55.5C17.8458 55.5 16.254 54.6046 16.254 53.5C16.254 52.3954 17.8458 51.5 19.8095 51.5C21.7732 51.5 22.3492 52.8954 22.3492 54Z" fill="#784A20"/>
<path d="M54.2706 31.1323C54.8564 32.0744 54.5748 32.7077 52.9 33.7168C51.2251 34.7259 49.3925 34.7802 48.8067 33.8381C48.2209 32.896 49.1038 31.3142 50.7786 30.3051C52.4535 29.296 53.6848 30.1902 54.2706 31.1323Z" fill="#784A20"/>
<path d="M52.0679 18.8254C51.2388 19.5697 50.5539 19.4173 49.2306 17.9891C47.9074 16.5609 47.4235 16.2443 48.2526 15.5C49.0816 14.7556 49.4708 14.0718 50.794 15.5C52.1173 16.9282 52.897 18.0811 52.0679 18.8254Z" fill="#784A20"/>
<path d="M36.7481 32.4971C38.2937 34.9828 38.1346 36.3019 35.7057 37.7654C33.2768 39.2288 30.0549 38.4001 28.5093 35.9144C26.9638 33.4287 26.7576 32.3346 29.1865 30.8712C31.6154 29.4077 35.2026 30.0114 36.7481 32.4971Z" fill="#784A20"/>
<path d="M30.4762 9.9577C30.4762 7.04335 31.3115 6.00003 34.1592 6.00003C37.0069 6.00003 39.3155 8.36258 39.3155 11.2769C39.3155 14.1913 38.911 15.2304 36.0633 15.2304C33.2156 15.2304 30.4762 12.8721 30.4762 9.9577Z" fill="#784A20"/>
<path d="M39.6181 48.8105C39.6181 47.2318 40.0981 46.6667 41.7345 46.6667C43.3709 46.6667 45.7126 45.1667 46.7284 46.6667C47.2365 48.8105 44.4651 51.6667 42.8287 51.6667C41.1923 51.6667 39.6181 50.3892 39.6181 48.8105Z" fill="#784A20"/>
<path d="M13.5407 33.1431C12.1487 34.3086 11.0426 34.0224 8.97065 31.6245C6.89869 29.2265 6.34747 26.3378 7.73947 25.1723C9.13148 24.0068 11.9396 25.0059 14.0115 27.4039C16.0835 29.8018 14.9327 31.9776 13.5407 33.1431Z" fill="#784A20"/>
<path d="M23.559 17.8298C22.167 18.9952 21.0609 18.7091 18.989 16.3111C16.917 13.9132 16.3658 11.0245 17.7578 9.85898C19.1498 8.6935 20.2758 10.8507 22.3478 13.2487C24.4197 15.6466 24.9511 16.6643 23.559 17.8298Z" fill="#784A20"/>
</g>
<defs>
<filter id="filter0_d_3588_5225" x="0" y="0" width="64" height="65" filterUnits="userSpaceOnUse" color-interpolation-filters="sRGB">
<feFlood flood-opacity="0" result="BackgroundImageFix"/>
<feColorMatrix in="SourceAlpha" type="matrix" values="0 0 0 0 0 0 0 0 0 0 0 0 0 0 0 0 0 0 127 0" result="hardAlpha"/>
<feOffset dy="1"/>
<feComposite in2="hardAlpha" operator="out"/>
<feColorMatrix type="matrix" values="0 0 0 0 0 0 0 0 0 0 0 0 0 0 0 0 0 0 0.15 0"/>
<feBlend mode="normal" in2="BackgroundImageFix" result="effect1_dropShadow_3588_5225"/>
<feBlend mode="normal" in="SourceGraphic" in2="effect1_dropShadow_3588_5225" result="shape"/>
</filter>
</defs>
</svg>
