<svg width="1440" height="626" viewBox="0 0 1440 626" fill="none" xmlns="http://www.w3.org/2000/svg">
<g filter="url(#filter0_ddd_374_692)">
<path d="M725 312C479.795 312 239.278 332.068 5 370.65L0 372.394V584.5H1440V369.83C1207.3 331.783 968.461 312 725 312Z" fill="#F3F3F3"/>
</g>
<g filter="url(#filter1_di_374_692)">
<ellipse cx="106.012" cy="411.023" rx="64.394" ry="19.9218" transform="rotate(-5.51947 106.012 411.023)" fill="#E5E5E5"/>
</g>
<g filter="url(#filter2_di_374_692)">
<ellipse cx="919.817" cy="395.162" rx="64.394" ry="19.9218" transform="rotate(4.72862 919.817 395.162)" fill="#E5E5E5"/>
</g>
<g filter="url(#filter3_di_374_692)">
<ellipse cx="1334.82" cy="445.162" rx="64.394" ry="19.9218" transform="rotate(4.72862 1334.82 445.162)" fill="#E5E5E5"/>
</g>
<g filter="url(#filter4_di_374_692)">
<ellipse cx="1097.89" cy="515.441" rx="121.549" ry="45.5765" transform="rotate(4.72862 1097.89 515.441)" fill="#E5E5E5"/>
</g>
<g filter="url(#filter5_di_374_692)">
<ellipse cx="333.451" cy="490.57" rx="64.394" ry="24.4902" transform="rotate(-5.51947 333.451 490.57)" fill="#E5E5E5"/>
</g>
<g filter="url(#filter6_di_374_692)">
<ellipse cx="486.264" cy="384.88" rx="64.394" ry="24.4902" transform="rotate(-2.14237 486.264 384.88)" fill="#E5E5E5"/>
</g>
<ellipse cx="314.5" cy="379.5" rx="5.5" ry="2.5" fill="black" fill-opacity="0.3"/>
<g filter="url(#filter7_ii_374_692)">
<path d="M305.163 282.994L311.355 378.482C311.445 379.87 312.643 380.922 314.031 380.832L315.287 380.75C316.675 380.66 317.727 379.462 317.637 378.075L311.445 282.587C311.355 281.199 310.157 280.147 308.769 280.237L307.513 280.318C306.125 280.408 305.073 281.606 305.163 282.994Z" fill="#2D3356"/>
<path d="M305.163 282.994L311.355 378.482C311.445 379.87 312.643 380.922 314.031 380.832L315.287 380.75C316.675 380.66 317.727 379.462 317.637 378.075L311.445 282.587C311.355 281.199 310.157 280.147 308.769 280.237L307.513 280.318C306.125 280.408 305.073 281.606 305.163 282.994Z" stroke="black"/>
</g>
<path d="M327.476 286.594C321.194 287.001 314.225 284.93 311.526 283.843L312.504 298.92L313.482 313.997C316.181 315.084 323.149 317.155 329.431 316.748C335.714 316.341 342.356 313.386 344.892 311.96C347.428 310.534 354.071 307.58 360.353 307.173C366.635 306.765 373.604 308.837 376.303 309.923L374.347 279.769C371.648 278.683 364.68 276.611 358.398 277.018C352.116 277.426 345.473 280.38 342.937 281.806C340.401 283.232 333.758 286.186 327.476 286.594Z" fill="#46C8DA"/>
<path d="M313.2 311.96C319 314.46 326.5 320 327.5 298C329.031 291.894 342.074 311.35 344.61 309.923C349.5 309 358 309.923 360.071 292C361.468 285.862 373.322 306.086 376.021 307.173L376.021 309.923C373.322 308.837 366.353 306.765 360.071 307.173C353.789 307.58 347.146 310.534 344.61 311.96C342.074 313.386 335.432 316.341 329.149 316.748C322.867 317.155 315.899 315.084 313.2 313.997L313.2 311.96Z" fill="black" fill-opacity="0.05"/>
<path fill-rule="evenodd" clip-rule="evenodd" d="M341.893 299.39C341.37 299.171 340.941 298.72 340.795 298.036C340.648 297.351 340.855 296.764 341.242 296.351C341.588 295.982 342.027 295.8 342.346 295.731C342.666 295.663 343.141 295.649 343.607 295.844C344.131 296.063 344.559 296.514 344.706 297.198C344.852 297.883 344.646 298.47 344.258 298.884C343.913 299.252 343.473 299.435 343.154 299.503C342.835 299.571 342.359 299.585 341.893 299.39Z" fill="white"/>
<path fill-rule="evenodd" clip-rule="evenodd" d="M349.48 293.871C347.519 293.469 344.864 293.503 342.001 294.116C339.137 294.729 336.701 295.785 335.077 296.954C333.373 298.182 332.879 299.277 333.03 299.982C333.181 300.687 334.08 301.484 336.137 301.905C338.098 302.307 340.752 302.273 343.616 301.66C346.479 301.047 348.915 299.992 350.539 298.822C352.244 297.595 352.738 296.5 352.587 295.795C352.436 295.09 351.537 294.293 349.48 293.871ZM353.565 295.586C353.007 292.982 347.739 291.902 341.799 293.173C335.858 294.445 331.495 297.587 332.052 300.191C332.609 302.795 337.877 303.875 343.818 302.603C349.758 301.331 354.122 298.189 353.565 295.586Z" fill="white"/>
<path fill-rule="evenodd" clip-rule="evenodd" d="M342.877 289.98C341.511 291.427 340.18 293.668 339.261 296.366C338.341 299.064 338.037 301.619 338.251 303.55C338.475 305.576 339.202 306.523 339.911 306.74C340.619 306.957 341.794 306.592 343.227 305.073C344.592 303.626 345.923 301.385 346.843 298.687C347.763 295.989 348.067 293.434 347.853 291.504C347.628 289.478 346.901 288.53 346.193 288.314C345.484 288.097 344.309 288.462 342.877 289.98ZM346.507 287.392C343.889 286.591 340.221 290.479 338.313 296.076C336.405 301.673 336.979 306.86 339.597 307.661C342.214 308.462 345.882 304.575 347.791 298.978C349.699 293.38 349.124 288.194 346.507 287.392Z" fill="white"/>
<path fill-rule="evenodd" clip-rule="evenodd" d="M336.205 293.997C336.801 295.846 338.124 298.053 340.068 300.138C342.012 302.223 344.143 303.722 345.982 304.484C347.911 305.282 349.132 305.134 349.689 304.646C350.247 304.158 350.522 302.996 349.898 301.056C349.303 299.207 347.979 297 346.035 294.915C344.091 292.831 341.96 291.331 340.122 290.57C338.193 289.771 336.972 289.919 336.414 290.407C335.857 290.895 335.581 292.057 336.205 293.997ZM335.75 289.695C333.691 291.498 335.29 296.465 339.322 300.791C343.355 305.116 348.293 307.161 350.353 305.358C352.413 303.556 350.814 298.588 346.781 294.263C342.749 289.937 337.81 287.892 335.75 289.695Z" fill="white"/>
<g opacity="0.5" filter="url(#filter8_d_374_692)">
<path d="M1127 392.881C1127 398.404 1104.51 400.381 1078 400.381C1051.49 400.381 1032 393.904 1032 388.381C1032 382.858 1055.49 375.381 1082 375.381C1108.51 375.381 1127 387.358 1127 392.881Z" fill="#111111" fill-opacity="0.01"/>
</g>
<g filter="url(#filter9_ii_374_692)">
<path d="M1075.9 387.922L1080 383.757M1123.03 340.012L1113.2 350.01L1099.17 364.267L1080 383.757M1103.12 390.734L1089.43 374.174L1084.27 367.509L1081.58 364.884M1080 383.757L1056.5 386" stroke="#4E3331" stroke-width="4" stroke-linecap="round" stroke-linejoin="round"/>
</g>
<path d="M1071.22 369.827L1070.88 370.192L1083.55 367.434L1080.86 364.809L1078.87 365.154C1076.53 367.292 1073.9 368.81 1071.22 369.827Z" fill="url(#paint0_linear_374_692)"/>
<path d="M1053.59 369.553C1056.19 371.302 1061.57 372.163 1067.3 370.97L1067.75 370.871C1068.91 370.61 1070.07 370.265 1071.22 369.827L1075.02 365.824L1053.59 369.553Z" fill="url(#paint1_linear_374_692)"/>
<path d="M1071.22 369.827C1073.9 368.81 1076.53 367.292 1078.87 365.154L1075.02 365.824L1071.22 369.827Z" fill="url(#paint2_linear_374_692)"/>
<path d="M1112.47 349.935L1085.57 354.718C1084.02 359.202 1081.65 362.615 1078.87 365.154L1080.86 364.809C1082.26 365.75 1084.44 366.432 1087.04 366.674L1098.45 364.192L1112.47 349.935Z" fill="url(#paint3_linear_374_692)"/>
<path d="M1087.04 366.674C1084.44 366.432 1082.26 365.75 1080.86 364.809L1083.55 367.434L1087.04 366.674Z" fill="url(#paint4_linear_374_692)"/>
<path d="M1098.45 364.192L1087.04 366.674C1090.07 366.954 1093.65 366.64 1097.21 365.445L1098.45 364.192Z" fill="url(#paint5_linear_374_692)"/>
<path d="M1101.53 363.521C1106.07 360.937 1110.16 356.626 1112.47 349.935L1098.45 364.192L1101.53 363.521Z" fill="url(#paint6_linear_374_692)"/>
<path d="M1101.53 363.521L1098.45 364.192L1097.21 365.445C1098.67 364.957 1100.12 364.322 1101.53 363.521Z" fill="url(#paint7_linear_374_692)"/>
<path d="M1085.65 354.769L1112.55 349.987C1110.24 356.678 1106.15 360.989 1101.61 363.572C1100.2 364.374 1098.75 365.009 1097.29 365.497C1093.73 366.692 1090.14 367.006 1087.12 366.725L1083.63 367.486L1070.95 370.244L1067.83 370.923C1067.68 370.957 1067.53 370.99 1067.38 371.021L1067.83 370.923C1068.98 370.662 1070.15 370.317 1071.3 369.879C1073.98 368.862 1076.61 367.344 1078.95 365.206C1081.73 362.667 1084.1 359.253 1085.65 354.769Z" fill="black" fill-opacity="0.5"/>
<g filter="url(#filter10_ii_374_692)">
<path d="M1049.73 392.779L1062.05 379.956M1096.86 344.869L1086.3 354.793L1071.95 369.902L1071.6 370.267L1062.05 379.956M1062.05 379.956L1054.32 369.628M1062.05 379.956L1070 390.121M1074.04 395.291L1070 390.121M1070 390.121L1100 387" stroke="#4E3331" stroke-width="4" stroke-linecap="round" stroke-linejoin="round"/>
</g>
<defs>
<filter id="filter0_ddd_374_692" x="-156" y="0" width="1752" height="600.5" filterUnits="userSpaceOnUse" color-interpolation-filters="sRGB">
<feFlood flood-opacity="0" result="BackgroundImageFix"/>
<feColorMatrix in="SourceAlpha" type="matrix" values="0 0 0 0 0 0 0 0 0 0 0 0 0 0 0 0 0 0 127 0" result="hardAlpha"/>
<feOffset dy="-32"/>
<feGaussianBlur stdDeviation="16"/>
<feComposite in2="hardAlpha" operator="out"/>
<feColorMatrix type="matrix" values="0 0 0 0 0.0470588 0 0 0 0 0.054902 0 0 0 0 0.227451 0 0 0 1 0"/>
<feBlend mode="normal" in2="BackgroundImageFix" result="effect1_dropShadow_374_692"/>
<feColorMatrix in="SourceAlpha" type="matrix" values="0 0 0 0 0 0 0 0 0 0 0 0 0 0 0 0 0 0 127 0" result="hardAlpha"/>
<feOffset dy="-32"/>
<feGaussianBlur stdDeviation="24"/>
<feComposite in2="hardAlpha" operator="out"/>
<feColorMatrix type="matrix" values="0 0 0 0 1 0 0 0 0 1 0 0 0 0 1 0 0 0 0.5 0"/>
<feBlend mode="normal" in2="effect1_dropShadow_374_692" result="effect2_dropShadow_374_692"/>
<feColorMatrix in="SourceAlpha" type="matrix" values="0 0 0 0 0 0 0 0 0 0 0 0 0 0 0 0 0 0 127 0" result="hardAlpha"/>
<feOffset dy="-156"/>
<feGaussianBlur stdDeviation="78"/>
<feComposite in2="hardAlpha" operator="out"/>
<feColorMatrix type="matrix" values="0 0 0 0 0.233819 0 0 0 0 0.443625 0 0 0 0 0.758333 0 0 0 0.4 0"/>
<feBlend mode="normal" in2="effect2_dropShadow_374_692" result="effect3_dropShadow_374_692"/>
<feBlend mode="normal" in="SourceGraphic" in2="effect3_dropShadow_374_692" result="shape"/>
</filter>
<filter id="filter1_di_374_692" x="-22.113" y="326.243" width="256.249" height="169.56" filterUnits="userSpaceOnUse" color-interpolation-filters="sRGB">
<feFlood flood-opacity="0" result="BackgroundImageFix"/>
<feColorMatrix in="SourceAlpha" type="matrix" values="0 0 0 0 0 0 0 0 0 0 0 0 0 0 0 0 0 0 127 0" result="hardAlpha"/>
<feOffset/>
<feGaussianBlur stdDeviation="32"/>
<feComposite in2="hardAlpha" operator="out"/>
<feColorMatrix type="matrix" values="0 0 0 0 0.2375 0 0 0 0 0.2375 0 0 0 0 0.2375 0 0 0 0.05 0"/>
<feBlend mode="normal" in2="BackgroundImageFix" result="effect1_dropShadow_374_692"/>
<feBlend mode="normal" in="SourceGraphic" in2="effect1_dropShadow_374_692" result="shape"/>
<feColorMatrix in="SourceAlpha" type="matrix" values="0 0 0 0 0 0 0 0 0 0 0 0 0 0 0 0 0 0 127 0" result="hardAlpha"/>
<feOffset dy="8"/>
<feComposite in2="hardAlpha" operator="arithmetic" k2="-1" k3="1"/>
<feColorMatrix type="matrix" values="0 0 0 0 0 0 0 0 0 0 0 0 0 0 0 0 0 0 0.05 0"/>
<feBlend mode="normal" in2="shape" result="effect2_innerShadow_374_692"/>
</filter>
<filter id="filter2_di_374_692" x="791.621" y="310.606" width="256.392" height="169.113" filterUnits="userSpaceOnUse" color-interpolation-filters="sRGB">
<feFlood flood-opacity="0" result="BackgroundImageFix"/>
<feColorMatrix in="SourceAlpha" type="matrix" values="0 0 0 0 0 0 0 0 0 0 0 0 0 0 0 0 0 0 127 0" result="hardAlpha"/>
<feOffset/>
<feGaussianBlur stdDeviation="32"/>
<feComposite in2="hardAlpha" operator="out"/>
<feColorMatrix type="matrix" values="0 0 0 0 0.2375 0 0 0 0 0.2375 0 0 0 0 0.2375 0 0 0 0.05 0"/>
<feBlend mode="normal" in2="BackgroundImageFix" result="effect1_dropShadow_374_692"/>
<feBlend mode="normal" in="SourceGraphic" in2="effect1_dropShadow_374_692" result="shape"/>
<feColorMatrix in="SourceAlpha" type="matrix" values="0 0 0 0 0 0 0 0 0 0 0 0 0 0 0 0 0 0 127 0" result="hardAlpha"/>
<feOffset dy="8"/>
<feComposite in2="hardAlpha" operator="arithmetic" k2="-1" k3="1"/>
<feColorMatrix type="matrix" values="0 0 0 0 0 0 0 0 0 0 0 0 0 0 0 0 0 0 0.05 0"/>
<feBlend mode="normal" in2="shape" result="effect2_innerShadow_374_692"/>
</filter>
<filter id="filter3_di_374_692" x="1206.62" y="360.606" width="256.392" height="169.113" filterUnits="userSpaceOnUse" color-interpolation-filters="sRGB">
<feFlood flood-opacity="0" result="BackgroundImageFix"/>
<feColorMatrix in="SourceAlpha" type="matrix" values="0 0 0 0 0 0 0 0 0 0 0 0 0 0 0 0 0 0 127 0" result="hardAlpha"/>
<feOffset/>
<feGaussianBlur stdDeviation="32"/>
<feComposite in2="hardAlpha" operator="out"/>
<feColorMatrix type="matrix" values="0 0 0 0 0.2375 0 0 0 0 0.2375 0 0 0 0 0.2375 0 0 0 0.05 0"/>
<feBlend mode="normal" in2="BackgroundImageFix" result="effect1_dropShadow_374_692"/>
<feBlend mode="normal" in="SourceGraphic" in2="effect1_dropShadow_374_692" result="shape"/>
<feColorMatrix in="SourceAlpha" type="matrix" values="0 0 0 0 0 0 0 0 0 0 0 0 0 0 0 0 0 0 127 0" result="hardAlpha"/>
<feOffset dy="8"/>
<feComposite in2="hardAlpha" operator="arithmetic" k2="-1" k3="1"/>
<feColorMatrix type="matrix" values="0 0 0 0 0 0 0 0 0 0 0 0 0 0 0 0 0 0 0.05 0"/>
<feBlend mode="normal" in2="shape" result="effect2_innerShadow_374_692"/>
</filter>
<filter id="filter4_di_374_692" x="912.698" y="404.918" width="370.39" height="221.047" filterUnits="userSpaceOnUse" color-interpolation-filters="sRGB">
<feFlood flood-opacity="0" result="BackgroundImageFix"/>
<feColorMatrix in="SourceAlpha" type="matrix" values="0 0 0 0 0 0 0 0 0 0 0 0 0 0 0 0 0 0 127 0" result="hardAlpha"/>
<feOffset/>
<feGaussianBlur stdDeviation="32"/>
<feComposite in2="hardAlpha" operator="out"/>
<feColorMatrix type="matrix" values="0 0 0 0 0.2375 0 0 0 0 0.2375 0 0 0 0 0.2375 0 0 0 0.05 0"/>
<feBlend mode="normal" in2="BackgroundImageFix" result="effect1_dropShadow_374_692"/>
<feBlend mode="normal" in="SourceGraphic" in2="effect1_dropShadow_374_692" result="shape"/>
<feColorMatrix in="SourceAlpha" type="matrix" values="0 0 0 0 0 0 0 0 0 0 0 0 0 0 0 0 0 0 127 0" result="hardAlpha"/>
<feOffset dy="8"/>
<feComposite in2="hardAlpha" operator="arithmetic" k2="-1" k3="1"/>
<feColorMatrix type="matrix" values="0 0 0 0 0 0 0 0 0 0 0 0 0 0 0 0 0 0 0.05 0"/>
<feBlend mode="normal" in2="shape" result="effect2_innerShadow_374_692"/>
</filter>
<filter id="filter5_di_374_692" x="205.312" y="401.413" width="256.279" height="178.315" filterUnits="userSpaceOnUse" color-interpolation-filters="sRGB">
<feFlood flood-opacity="0" result="BackgroundImageFix"/>
<feColorMatrix in="SourceAlpha" type="matrix" values="0 0 0 0 0 0 0 0 0 0 0 0 0 0 0 0 0 0 127 0" result="hardAlpha"/>
<feOffset/>
<feGaussianBlur stdDeviation="32"/>
<feComposite in2="hardAlpha" operator="out"/>
<feColorMatrix type="matrix" values="0 0 0 0 0.2375 0 0 0 0 0.2375 0 0 0 0 0.2375 0 0 0 0.05 0"/>
<feBlend mode="normal" in2="BackgroundImageFix" result="effect1_dropShadow_374_692"/>
<feBlend mode="normal" in="SourceGraphic" in2="effect1_dropShadow_374_692" result="shape"/>
<feColorMatrix in="SourceAlpha" type="matrix" values="0 0 0 0 0 0 0 0 0 0 0 0 0 0 0 0 0 0 127 0" result="hardAlpha"/>
<feOffset dy="8"/>
<feComposite in2="hardAlpha" operator="arithmetic" k2="-1" k3="1"/>
<feColorMatrix type="matrix" values="0 0 0 0 0 0 0 0 0 0 0 0 0 0 0 0 0 0 0.05 0"/>
<feBlend mode="normal" in2="shape" result="effect2_innerShadow_374_692"/>
</filter>
<filter id="filter6_di_374_692" x="357.909" y="296.287" width="256.711" height="177.186" filterUnits="userSpaceOnUse" color-interpolation-filters="sRGB">
<feFlood flood-opacity="0" result="BackgroundImageFix"/>
<feColorMatrix in="SourceAlpha" type="matrix" values="0 0 0 0 0 0 0 0 0 0 0 0 0 0 0 0 0 0 127 0" result="hardAlpha"/>
<feOffset/>
<feGaussianBlur stdDeviation="32"/>
<feComposite in2="hardAlpha" operator="out"/>
<feColorMatrix type="matrix" values="0 0 0 0 0.2375 0 0 0 0 0.2375 0 0 0 0 0.2375 0 0 0 0.05 0"/>
<feBlend mode="normal" in2="BackgroundImageFix" result="effect1_dropShadow_374_692"/>
<feBlend mode="normal" in="SourceGraphic" in2="effect1_dropShadow_374_692" result="shape"/>
<feColorMatrix in="SourceAlpha" type="matrix" values="0 0 0 0 0 0 0 0 0 0 0 0 0 0 0 0 0 0 127 0" result="hardAlpha"/>
<feOffset dy="8"/>
<feComposite in2="hardAlpha" operator="arithmetic" k2="-1" k3="1"/>
<feColorMatrix type="matrix" values="0 0 0 0 0 0 0 0 0 0 0 0 0 0 0 0 0 0 0.05 0"/>
<feBlend mode="normal" in2="shape" result="effect2_innerShadow_374_692"/>
</filter>
<filter id="filter7_ii_374_692" x="305.157" y="280.231" width="12.485" height="100.606" filterUnits="userSpaceOnUse" color-interpolation-filters="sRGB">
<feFlood flood-opacity="0" result="BackgroundImageFix"/>
<feBlend mode="normal" in="SourceGraphic" in2="BackgroundImageFix" result="shape"/>
<feColorMatrix in="SourceAlpha" type="matrix" values="0 0 0 0 0 0 0 0 0 0 0 0 0 0 0 0 0 0 127 0" result="hardAlpha"/>
<feOffset dx="-4"/>
<feComposite in2="hardAlpha" operator="arithmetic" k2="-1" k3="1"/>
<feColorMatrix type="matrix" values="0 0 0 0 1 0 0 0 0 1 0 0 0 0 1 0 0 0 0.15 0"/>
<feBlend mode="normal" in2="shape" result="effect1_innerShadow_374_692"/>
<feColorMatrix in="SourceAlpha" type="matrix" values="0 0 0 0 0 0 0 0 0 0 0 0 0 0 0 0 0 0 127 0" result="hardAlpha"/>
<feOffset dx="4"/>
<feComposite in2="hardAlpha" operator="arithmetic" k2="-1" k3="1"/>
<feColorMatrix type="matrix" values="0 0 0 0 0 0 0 0 0 0 0 0 0 0 0 0 0 0 0.15 0"/>
<feBlend mode="normal" in2="effect1_innerShadow_374_692" result="effect2_innerShadow_374_692"/>
</filter>
<filter id="filter8_d_374_692" x="1032" y="375.381" width="95" height="29" filterUnits="userSpaceOnUse" color-interpolation-filters="sRGB">
<feFlood flood-opacity="0" result="BackgroundImageFix"/>
<feColorMatrix in="SourceAlpha" type="matrix" values="0 0 0 0 0 0 0 0 0 0 0 0 0 0 0 0 0 0 127 0" result="hardAlpha"/>
<feOffset dy="4"/>
<feColorMatrix type="matrix" values="0 0 0 0 0 0 0 0 0 0 0 0 0 0 0 0 0 0 0.1 0"/>
<feBlend mode="normal" in2="BackgroundImageFix" result="effect1_dropShadow_374_692"/>
<feBlend mode="normal" in="SourceGraphic" in2="effect1_dropShadow_374_692" result="shape"/>
</filter>
<filter id="filter9_ii_374_692" x="1054.5" y="338.012" width="70.5349" height="54.7222" filterUnits="userSpaceOnUse" color-interpolation-filters="sRGB">
<feFlood flood-opacity="0" result="BackgroundImageFix"/>
<feBlend mode="normal" in="SourceGraphic" in2="BackgroundImageFix" result="shape"/>
<feColorMatrix in="SourceAlpha" type="matrix" values="0 0 0 0 0 0 0 0 0 0 0 0 0 0 0 0 0 0 127 0" result="hardAlpha"/>
<feOffset dx="-1" dy="-2"/>
<feComposite in2="hardAlpha" operator="arithmetic" k2="-1" k3="1"/>
<feColorMatrix type="matrix" values="0 0 0 0 0 0 0 0 0 0 0 0 0 0 0 0 0 0 0.25 0"/>
<feBlend mode="normal" in2="shape" result="effect1_innerShadow_374_692"/>
<feColorMatrix in="SourceAlpha" type="matrix" values="0 0 0 0 0 0 0 0 0 0 0 0 0 0 0 0 0 0 127 0" result="hardAlpha"/>
<feOffset dx="1" dy="2"/>
<feComposite in2="hardAlpha" operator="arithmetic" k2="-1" k3="1"/>
<feColorMatrix type="matrix" values="0 0 0 0 1 0 0 0 0 1 0 0 0 0 1 0 0 0 0.05 0"/>
<feBlend mode="normal" in2="effect1_innerShadow_374_692" result="effect2_innerShadow_374_692"/>
</filter>
<filter id="filter10_ii_374_692" x="1047.73" y="342.869" width="54.2743" height="54.4223" filterUnits="userSpaceOnUse" color-interpolation-filters="sRGB">
<feFlood flood-opacity="0" result="BackgroundImageFix"/>
<feBlend mode="normal" in="SourceGraphic" in2="BackgroundImageFix" result="shape"/>
<feColorMatrix in="SourceAlpha" type="matrix" values="0 0 0 0 0 0 0 0 0 0 0 0 0 0 0 0 0 0 127 0" result="hardAlpha"/>
<feOffset dx="-1" dy="-2"/>
<feComposite in2="hardAlpha" operator="arithmetic" k2="-1" k3="1"/>
<feColorMatrix type="matrix" values="0 0 0 0 0 0 0 0 0 0 0 0 0 0 0 0 0 0 0.25 0"/>
<feBlend mode="normal" in2="shape" result="effect1_innerShadow_374_692"/>
<feColorMatrix in="SourceAlpha" type="matrix" values="0 0 0 0 0 0 0 0 0 0 0 0 0 0 0 0 0 0 127 0" result="hardAlpha"/>
<feOffset dx="1" dy="2"/>
<feComposite in2="hardAlpha" operator="arithmetic" k2="-1" k3="1"/>
<feColorMatrix type="matrix" values="0 0 0 0 1 0 0 0 0 1 0 0 0 0 1 0 0 0 0.05 0"/>
<feBlend mode="normal" in2="effect1_innerShadow_374_692" result="effect2_innerShadow_374_692"/>
</filter>
<linearGradient id="paint0_linear_374_692" x1="1056.4" y1="370.826" x2="1120.79" y2="358.202" gradientUnits="userSpaceOnUse">
<stop stop-color="#1EFF93"/>
<stop offset="0.270833" stop-color="#127AC6"/>
<stop offset="0.511451" stop-color="#1EFF93"/>
<stop offset="0.776042" stop-color="#0978E0"/>
<stop offset="1" stop-color="#1EFF93"/>
</linearGradient>
<linearGradient id="paint1_linear_374_692" x1="1056.4" y1="370.826" x2="1120.79" y2="358.202" gradientUnits="userSpaceOnUse">
<stop stop-color="#1EFF93"/>
<stop offset="0.270833" stop-color="#127AC6"/>
<stop offset="0.511451" stop-color="#1EFF93"/>
<stop offset="0.776042" stop-color="#0978E0"/>
<stop offset="1" stop-color="#1EFF93"/>
</linearGradient>
<linearGradient id="paint2_linear_374_692" x1="1056.4" y1="370.826" x2="1120.79" y2="358.202" gradientUnits="userSpaceOnUse">
<stop stop-color="#1EFF93"/>
<stop offset="0.270833" stop-color="#127AC6"/>
<stop offset="0.511451" stop-color="#1EFF93"/>
<stop offset="0.776042" stop-color="#0978E0"/>
<stop offset="1" stop-color="#1EFF93"/>
</linearGradient>
<linearGradient id="paint3_linear_374_692" x1="1056.4" y1="370.826" x2="1120.79" y2="358.202" gradientUnits="userSpaceOnUse">
<stop stop-color="#1EFF93"/>
<stop offset="0.270833" stop-color="#127AC6"/>
<stop offset="0.511451" stop-color="#1EFF93"/>
<stop offset="0.776042" stop-color="#0978E0"/>
<stop offset="1" stop-color="#1EFF93"/>
</linearGradient>
<linearGradient id="paint4_linear_374_692" x1="1056.4" y1="370.826" x2="1120.79" y2="358.202" gradientUnits="userSpaceOnUse">
<stop stop-color="#1EFF93"/>
<stop offset="0.270833" stop-color="#127AC6"/>
<stop offset="0.511451" stop-color="#1EFF93"/>
<stop offset="0.776042" stop-color="#0978E0"/>
<stop offset="1" stop-color="#1EFF93"/>
</linearGradient>
<linearGradient id="paint5_linear_374_692" x1="1056.4" y1="370.826" x2="1120.79" y2="358.202" gradientUnits="userSpaceOnUse">
<stop stop-color="#1EFF93"/>
<stop offset="0.270833" stop-color="#127AC6"/>
<stop offset="0.511451" stop-color="#1EFF93"/>
<stop offset="0.776042" stop-color="#0978E0"/>
<stop offset="1" stop-color="#1EFF93"/>
</linearGradient>
<linearGradient id="paint6_linear_374_692" x1="1056.4" y1="370.826" x2="1120.79" y2="358.202" gradientUnits="userSpaceOnUse">
<stop stop-color="#1EFF93"/>
<stop offset="0.270833" stop-color="#127AC6"/>
<stop offset="0.511451" stop-color="#1EFF93"/>
<stop offset="0.776042" stop-color="#0978E0"/>
<stop offset="1" stop-color="#1EFF93"/>
</linearGradient>
<linearGradient id="paint7_linear_374_692" x1="1056.4" y1="370.826" x2="1120.79" y2="358.202" gradientUnits="userSpaceOnUse">
<stop stop-color="#1EFF93"/>
<stop offset="0.270833" stop-color="#127AC6"/>
<stop offset="0.511451" stop-color="#1EFF93"/>
<stop offset="0.776042" stop-color="#0978E0"/>
<stop offset="1" stop-color="#1EFF93"/>
</linearGradient>
</defs>
</svg>
