<svg width="156" height="155" viewBox="0 0 156 155" fill="none" xmlns="http://www.w3.org/2000/svg">
<ellipse cx="78" cy="77.5" rx="78" ry="77.5" fill="#FFA151"/>
<mask id="mask0_374_763" style="mask-type:alpha" maskUnits="userSpaceOnUse" x="0" y="0" width="156" height="155">
<ellipse cx="78" cy="77.5" rx="78" ry="77.5" fill="#C4C4C4"/>
</mask>
<g mask="url(#mask0_374_763)">
<path d="M-18.3504 112.991C-9.75792 99.7154 -1.26043 100.295 18.2829 87.7184C34.4868 77.291 56.7432 71.3698 52.8272 77.0803C44.8181 88.7597 35.1478 87.0186 29.6988 104.707C24.2498 122.395 51.3071 95.5027 51.3071 95.5027C51.3071 95.5027 82.1878 61.7138 81.0275 76.0941C79.2569 98.0381 38.6969 118.23 26.8838 133.969C24.0963 137.682 23.195 140.295 23.3013 142.114L27.9086 145.335C32.8042 145.912 23.6168 147.51 23.3013 142.114L-18.3504 112.991Z" fill="#E63838" fill-opacity="0.69"/>
<path d="M100.141 57.1447C105.19 50.6646 122.446 38.5443 130.442 33.2942C133.933 29.6131 142.379 22.2212 148.238 22.1027C155.562 21.9544 161.11 44.6763 153.535 54.7795C145.959 64.8826 128.352 76.6497 123.836 74.6126C120.223 72.9829 139.584 51.3463 125.003 56.7171C117.528 59.4704 113.904 62.9318 106.249 66.9457C96.6802 71.9631 93.8299 65.2449 100.141 57.1447Z" fill="#E63838" fill-opacity="0.69"/>
<path d="M87.3585 119.954C75.171 129.884 62.3741 144.678 57.4991 150.833C56.382 151.338 54.8179 153.376 57.4991 157.493C60.8507 162.64 125.14 149.622 129.405 145.989C133.671 142.357 138.546 119.954 140.984 111.175C143.421 102.396 138.241 103.001 120.874 119.954C103.507 136.907 107.773 123.587 106.249 112.991C104.726 102.396 102.593 107.542 87.3585 119.954Z" fill="#E63838" fill-opacity="0.69"/>
<path d="M24.9844 47.2266C31.5757 31.3217 14.0156 40.97 3.65626 39.3555C21.5313 16.8522 65.2031 -22.4023 126.445 13.0176C92.3203 26.9434 95.1857 15.3141 82.5703 25.4297C65.2031 39.3555 82.5703 13.0176 63.375 22.4024C45.7381 31.0252 7.92189 88.3984 24.9844 47.2266Z" fill="#E63838" fill-opacity="0.69"/>
</g>
<path fill-rule="evenodd" clip-rule="evenodd" d="M15.19 31.5387C18.3034 77.2908 52.5182 144.785 152.225 101.384C142.091 132.498 112.69 154.999 78 154.999C34.9218 154.999 0 120.301 0 77.499C0 60.2936 5.64282 44.3977 15.19 31.5387Z" fill="#01050C" fill-opacity="0.35"/>
</svg>
