<svg id="wave" style="transform:rotate(180deg); transition: 0.3s" viewBox="0 0 1440 150" version="1.1" xmlns="http://www.w3.org/2000/svg"><defs><linearGradient id="sw-gradient-0" x1="0" x2="0" y1="1" y2="0"><stop stop-color="rgba(255, 255, 255, 1)" offset="0%"></stop><stop stop-color="rgba(255, 255, 255, 1)" offset="100%"></stop></linearGradient></defs><path style="transform:translate(0, 0px); opacity:1" fill="#F3F3F3" d="M0,75L24,62.5C48,50,96,25,144,30C192,35,240,70,288,70C336,70,384,35,432,32.5C480,30,528,60,576,77.5C624,95,672,100,720,87.5C768,75,816,45,864,47.5C912,50,960,85,1008,85C1056,85,1104,50,1152,45C1200,40,1248,65,1296,77.5C1344,90,1392,90,1440,82.5C1488,75,1536,60,1584,47.5C1632,35,1680,25,1728,17.5C1776,10,1824,5,1872,15C1920,25,1968,50,2016,72.5C2064,95,2112,115,2160,112.5C2208,110,2256,85,2304,75C2352,65,2400,70,2448,60C2496,50,2544,25,2592,17.5C2640,10,2688,20,2736,20C2784,20,2832,10,2880,27.5C2928,45,2976,90,3024,100C3072,110,3120,85,3168,62.5C3216,40,3264,20,3312,32.5C3360,45,3408,90,3432,112.5L3456,135L3456,150L3432,150C3408,150,3360,150,3312,150C3264,150,3216,150,3168,150C3120,150,3072,150,3024,150C2976,150,2928,150,2880,150C2832,150,2784,150,2736,150C2688,150,2640,150,2592,150C2544,150,2496,150,2448,150C2400,150,2352,150,2304,150C2256,150,2208,150,2160,150C2112,150,2064,150,2016,150C1968,150,1920,150,1872,150C1824,150,1776,150,1728,150C1680,150,1632,150,1584,150C1536,150,1488,150,1440,150C1392,150,1344,150,1296,150C1248,150,1200,150,1152,150C1104,150,1056,150,1008,150C960,150,912,150,864,150C816,150,768,150,720,150C672,150,624,150,576,150C528,150,480,150,432,150C384,150,336,150,288,150C240,150,192,150,144,150C96,150,48,150,24,150L0,150Z"></path></svg>