<svg width="22" height="23" viewBox="0 0 22 23" fill="none" xmlns="http://www.w3.org/2000/svg">
<g id="LocationIcon">
<path id="Vector 90" fill-rule="evenodd" clip-rule="evenodd" d="M11 20.0182L7.0154 14.8952C5.70126 13.2056 5 11.2204 5 9.1897V7.16111C5 5.44682 6.2 2.01825 11 2.01825C15.8 2.01825 17 5.44682 17 7.16111V9.1897C17 11.2204 16.2987 13.2056 14.9846 14.8952L11 20.0182ZM11 5.01831C8.6 5.01831 8 6.92307 8 7.87545C8 8.82783 8.6 10.7326 11 10.7326C13.4 10.7326 14 8.82783 14 7.87545C14 6.92307 13.4 5.01831 11 5.01831Z" fill="white"/>
</g>
</svg>
