<svg width="24" height="25" viewBox="0 0 24 25" fill="none" xmlns="http://www.w3.org/2000/svg">
<g clip-path="url(#clip0_3483_589)">
<path d="M15.5 14.0182H14.71L14.43 13.7482C15.41 12.6082 16 11.1282 16 9.51825C16 5.92825 13.09 3.01825 9.5 3.01825C5.91 3.01825 3 5.92825 3 9.51825C3 13.1082 5.91 16.0182 9.5 16.0182C11.11 16.0182 12.59 15.4282 13.73 14.4482L14 14.7282V15.5182L19 20.5082L20.49 19.0182L15.5 14.0182ZM9.5 14.0182C7.01 14.0182 5 12.0082 5 9.51825C5 7.02825 7.01 5.01825 9.5 5.01825C11.99 5.01825 14 7.02825 14 9.51825C14 12.0082 11.99 14.0182 9.5 14.0182Z" fill="white"/>
<path d="M12 10.0182H10V12.0182H9V10.0182H7V9.01825H9V7.01825H10V9.01825H12V10.0182Z" fill="white"/>
</g>
<defs>
<clipPath id="clip0_3483_589">
<rect width="24" height="24" fill="white" transform="translate(0 0.0182495)"/>
</clipPath>
</defs>
</svg>
